<svg preserveAspectRatio="none" width="100%" height="100%" overflow="visible" style="display: block;" viewBox="0 0 22 30" fill="none" xmlns="http://www.w3.org/2000/svg">
<g id="closing quotation mark ">
<path id="Vector" d="M11.9924 4.10746C12.0655 4.23346 11.927 4.34007 11.7573 4.40491C11.7046 4.42535 11.5083 4.35926 11.4628 4.37111C11.3743 4.39437 11.4626 4.45875 11.3592 4.47778C11.324 4.48384 11.0111 4.38713 10.9814 4.3953C10.8211 4.44068 10.8829 4.53685 10.7951 4.60148C10.3621 4.91945 10.1446 5.28387 9.89895 5.6536C9.81827 5.77537 9.48969 5.86659 9.58132 6.03599C9.59229 6.05587 9.87326 6.11553 9.89546 6.12431C10.235 6.25988 9.67657 6.10401 9.59403 6.11688C9.26801 6.16817 9.20783 6.30074 9.28559 6.44735C9.3195 6.50991 9.88558 6.59612 9.56223 6.57036C9.54036 6.56872 9.2477 6.48237 9.21267 6.48852C9.1338 6.50271 9.17172 6.57618 9.14217 6.59498C9.08373 6.63086 9.08476 6.63944 9.07028 6.68344C9.04794 6.74279 8.88271 6.77963 8.93347 6.86201C8.94518 6.87982 9.25313 6.93631 9.29921 6.97148C9.34519 7.00665 9.30482 7.0595 9.22838 7.06176C9.15189 7.06402 8.91556 6.99654 8.86004 6.98656C8.39153 6.90169 9.01342 7.12839 9.02705 7.14109C9.25655 7.36833 8.85842 7.41682 8.8223 7.56786C8.7955 7.68337 8.8857 7.83479 8.8423 7.94028C8.78957 8.06507 8.59806 8.13498 8.59541 8.26814C8.59479 8.28209 8.95548 8.35391 8.95544 8.37112C8.95464 8.55413 8.87386 8.716 8.59093 8.82941C8.56224 8.84067 8.25423 8.7421 8.20683 8.7488C7.92358 8.79136 7.26385 8.80911 8.61365 9.20281C8.54293 9.26163 8.46684 9.33501 8.17623 9.33217C7.98916 9.33047 7.65728 9.20773 7.79072 9.29388C7.82042 9.31322 8.12317 9.37065 8.14509 9.39415C8.2371 9.49304 8.12085 9.54822 8.25826 9.65674C8.2869 9.67906 8.55595 9.73971 8.60324 9.75547C8.98586 9.88435 8.32568 9.78616 8.27569 9.78743C7.90249 9.7985 8.02352 9.90161 7.9936 9.98865C7.98651 10.0088 8.35258 10.0708 8.35871 10.0932C8.38577 10.2081 8.32912 10.3081 8.14528 10.3703C8.10352 10.384 7.8015 10.2902 7.76583 10.293C7.61235 10.3061 8.18949 10.4552 8.05342 10.4707C8.02548 10.4742 7.76398 10.4062 7.73471 10.4011C7.27514 10.3207 7.91143 10.4972 7.92394 10.5075C8.09656 10.6421 7.41281 10.5399 7.48732 10.6486C7.49692 10.6617 7.835 10.7173 7.84165 10.7493C7.88808 10.9628 7.74869 11.1452 7.43815 11.2726C7.39026 11.2927 7.14521 11.2131 7.11395 11.2077C6.62523 11.1258 7.26587 11.2963 7.28791 11.3116C7.445 11.4289 6.88737 11.3734 7.64401 11.6042C7.57244 11.659 7.5316 11.7205 7.50482 11.7847C7.40312 12.0298 7.50148 12.3177 6.89907 12.4474C6.89015 12.4497 6.57347 12.3706 6.55706 12.3754C6.35618 12.4332 6.85528 12.5257 7.44605 12.726C7.59437 12.7764 6.85245 12.6623 6.79789 12.6547C6.59689 12.6266 6.12682 12.5039 6.08739 12.5007C5.77718 12.4782 7.34572 12.8213 7.33303 12.8806C7.33 12.8818 7.04329 12.8097 7.0135 12.8083C6.92 12.8037 7.03125 12.8444 6.92851 12.8378C6.69094 12.8216 5.92648 12.6651 6.35789 12.8171C6.41394 12.8365 7.30537 13.0235 7.25166 13.0671C7.22955 13.084 7.22399 13.1816 7.16059 13.1952C7.09724 13.2088 6.81454 13.1278 6.80172 13.1269C6.40707 13.1146 6.25588 13.0532 5.68679 12.966C5.11979 12.8793 6.45566 13.1612 6.60134 13.2083C6.74659 13.2554 6.42234 13.2394 6.31077 13.2286C6.19916 13.2178 6.02042 13.162 5.95635 13.1601C5.53751 13.1485 6.61133 13.3373 6.81769 13.408C7.30661 13.5744 6.307 13.4067 6.19841 13.4397C6.16908 13.4486 6.39707 13.4853 6.41537 13.5027C6.48491 13.5711 6.16941 13.5356 6.44013 13.6549C6.48422 13.6744 7.06957 13.8482 6.6262 13.7855C6.56227 13.7764 6.31808 13.7117 6.25817 13.7217C6.16837 13.7362 6.10175 13.7847 6.17688 13.8371C6.23247 13.876 6.64554 13.932 6.51231 13.9379C6.45284 13.9405 6.22048 13.8636 6.12859 13.8726C6.03678 13.8815 6.03266 13.9532 6.03533 13.9816C6.03822 14.0098 6.34996 14.0597 6.37031 14.0661C6.48675 14.1039 6.62519 14.1851 6.62391 14.1894C6.61522 14.4207 6.05212 14.5225 6.18123 14.7763C6.19091 14.7962 6.51943 14.8492 6.52427 14.8529C6.64937 14.9385 5.79108 14.7209 5.49254 14.7052C6.15586 14.8296 6.03116 14.8303 6.09571 14.8858C6.12736 14.9126 6.38592 14.952 6.41182 14.9589C6.79559 15.0645 6.28842 14.987 6.18443 14.9723C5.80192 14.9184 6.24522 15.0267 5.9895 14.9909C5.73564 14.9557 5.36915 14.8526 5.36615 14.8937C5.60118 14.9507 6.22669 15.0411 6.32135 15.0905C6.67943 15.2768 6.15302 15.3952 6.08554 15.4777C6.01802 15.5603 6.05671 15.5967 5.96105 15.6349C5.78825 15.7034 6.25559 15.7512 6.45609 15.8478C6.65661 15.9445 5.52705 15.7142 5.2816 15.6794C5.03625 15.6448 5.28557 15.6988 5.14963 15.6857C5.01371 15.6728 4.85196 15.6201 4.79715 15.6366C4.74234 15.6533 5.16422 15.7981 5.41795 15.8511C5.95537 15.9639 6.52809 16.0323 6.31745 16.0626C6.30496 16.0643 6.00847 16.0005 5.97581 16.0096C5.72623 16.0839 5.69195 16.2002 5.46943 16.2824C5.43837 16.2936 5.108 16.225 5.08615 16.231C4.8576 16.2929 5.42422 16.35 6.0393 16.5021C5.21151 16.3572 4.69908 16.3054 4.68244 16.379C4.67219 16.4231 5.03593 16.4726 5.28706 16.5409C5.36278 16.5614 5.10891 16.554 5.27862 16.586C5.8334 16.6904 6.46198 16.7579 6.20225 16.7927C6.18993 16.7942 5.88621 16.7373 5.866 16.7457C5.73385 16.8007 6.31617 16.8968 6.37553 16.984C6.42209 17.0526 6.05049 17.1089 5.98287 17.1708C5.04733 17.0392 5.25215 17.1375 5.89409 17.2514C5.86152 17.2933 5.89162 17.3464 5.79661 17.3789C5.76421 17.3901 5.49424 17.345 5.46468 17.3431C5.00103 17.3134 5.62702 17.4143 5.65045 17.427C5.66669 17.4368 5.67926 17.446 5.68876 17.4548C5.81151 17.5673 5.42176 17.605 5.84474 17.7442C5.86116 17.7497 6.51296 17.8258 6.03383 17.8001C6.00079 17.7985 5.70737 17.734 5.67948 17.7781C5.6517 17.8202 5.29258 17.8784 5.59056 17.9671C5.66218 17.9894 6.19064 18.0649 5.77351 18.0645C5.71685 18.0646 5.52936 18.0475 5.42446 18.0464C5.09011 18.0449 5.75154 18.0952 5.18764 18.0857C4.62381 18.0757 4.19875 18.118 4.58511 18.2087C4.59633 18.2119 5.12138 18.2428 5.11271 18.2627C5.09833 18.295 4.9886 18.3445 4.99263 18.3809C4.99474 18.3981 5.32096 18.3813 5.32698 18.3842C5.51248 18.4823 5.22428 18.5566 5.11794 18.6982C5.09903 18.73 5.54331 18.6853 5.21058 18.8019C4.85506 18.9539 3.28099 19.3119 3.7374 19.4613C3.83037 19.4913 4.36062 19.3407 4.73623 19.2074C5.11689 19.0823 5.31998 18.9465 4.91528 19.2886C5.0868 19.3061 5.09991 19.4157 5.17367 19.5292C5.24091 19.6388 5.36886 19.7278 5.50793 19.5643C5.52398 19.5506 5.64121 18.995 5.6447 19.0031C5.65569 19.0174 5.64014 19.2824 5.65588 19.3012C5.72596 19.3862 5.78523 19.1571 5.84697 19.1865C5.87142 19.1968 5.89251 19.4705 5.92914 19.4814C5.96812 19.4915 5.93325 19.1316 6.0016 19.2965C6.05266 19.4224 6.2434 20.1372 6.32458 20.2067C6.16265 19.4968 6.19748 19.5044 6.20184 19.3044C6.20224 19.2657 6.12637 19.0237 6.12294 18.9928C6.10552 18.8623 6.17915 19.0598 6.15577 18.9186C6.1501 18.8847 6.08117 18.6458 6.07217 18.6047C5.98991 18.2474 6.19074 18.7706 6.23108 18.8599C6.3751 19.2021 6.29132 18.8891 6.35933 19.0198C6.43028 19.1494 6.45299 19.3341 6.51107 19.4075C6.63293 19.5589 6.7088 19.4877 6.77351 19.4741C6.80009 19.4668 6.65966 19.1655 6.66063 19.1573C6.67662 19.0603 6.87031 19.3619 6.63528 18.7434C7.34173 20.3004 6.59809 18.5792 6.80062 18.8637C6.81691 18.8868 7.15487 19.6212 7.17925 19.7402C7.20311 19.8594 7.06682 19.6432 7.10789 19.8268C7.11861 19.8695 7.36683 20.587 7.37508 20.6332C7.45411 20.9887 6.9902 19.8731 6.96327 19.8124C6.6666 19.1602 6.91731 19.9385 6.92006 19.9978C6.94208 20.2663 6.81601 20.1314 6.81515 20.3267C6.81379 20.4531 7.05743 21.206 7.0078 21.1967C6.83401 21.1679 6.51068 20.1127 6.62113 21.073C6.64271 21.2779 6.87715 22.1118 6.60028 21.4781C6.57968 21.439 6.36393 20.8496 6.38923 21.245C6.39184 21.295 6.43874 21.5426 6.43305 21.5652C6.39241 21.7119 6.31716 21.5212 6.25124 21.6277C6.18413 21.7342 6.10305 21.8879 5.9811 21.8105C5.90802 21.7643 5.80972 21.2974 5.78335 21.1827C5.71247 20.8532 5.59978 21.3928 5.56688 20.9888C5.55152 20.5837 5.65363 19.9777 5.60097 19.7121C5.53688 20.3638 5.46119 21.0317 5.37988 21.6854C4.97206 21.6193 4.52388 21.282 4.05407 20.9724C3.99362 20.9331 3.84549 21.262 3.76901 21.2212C3.43737 21.0338 3.41474 20.6311 3.16411 20.4354C2.96511 20.2809 2.51517 20.2139 2.34276 20.0299C2.98744 19.6267 2.67832 19.4818 2.71046 19.3031C2.72168 19.2429 2.91869 19.2065 2.97574 19.1585C3.1894 18.9863 2.54887 19.1622 2.43931 19.1406C1.97285 19.0349 3.45768 18.8239 3.40954 18.7068C3.40754 18.7037 2.60395 18.6696 2.55355 18.6564C2.22491 18.59 2.83029 18.6266 2.88675 18.5746C2.99052 18.4792 3.18014 18.4261 2.94584 18.3349C2.87643 18.3093 2.37899 18.236 2.76533 18.1924C2.8159 18.1869 3.07982 18.1967 3.0954 18.192C3.3555 18.1094 2.52662 18.0801 2.24829 18.0109C1.97016 17.9404 2.54716 17.8881 2.71279 17.8862C3.14152 17.8744 2.89298 17.9279 2.93473 17.9329C3.43111 17.9875 3.34845 17.9299 3.39319 17.8944C4.20522 17.9444 4.16002 17.8931 3.43635 17.8574C3.35727 17.8538 3.43079 17.8893 3.39319 17.8944C2.59905 17.8067 2.50272 17.724 3.25141 17.7253C3.60234 17.7262 4.0057 17.7899 3.86515 17.6915C3.80182 17.6471 3.24282 17.6075 3.09439 17.5569C2.75603 17.4387 3.28694 17.3933 3.21436 17.3067C3.18805 17.2749 2.88027 17.2661 2.85182 17.243C2.77676 17.1824 3.00114 17.1652 2.90431 17.1028C2.90257 17.1017 2.90072 17.1006 2.89876 17.0994C2.88836 17.0935 2.56849 17.0644 2.56641 17.0482C2.5446 16.924 2.7622 16.8473 2.78481 16.7256C2.79554 16.6669 2.63539 16.5356 2.67961 16.4793C2.75438 16.3807 3.23539 16.3219 3.13711 16.2162C3.07445 16.1468 2.75532 16.1096 2.54316 16.0506C2.13195 15.9357 2.89591 15.9687 3.01382 15.9764C3.0177 15.9767 3.08438 16.0388 3.2514 16.0382C3.59293 16.0773 3.01382 15.9764 3.01382 15.9764C3.09006 15.9806 3.17804 15.8937 3.12079 15.8638C3.08947 15.8476 2.78833 15.8042 2.77768 15.7966C2.53116 15.6184 2.47793 15.4702 2.64173 15.3588C2.6482 15.3575 2.98277 15.4195 2.99378 15.4158C3.15624 15.3649 2.75523 15.2424 2.52344 15.1346C2.29174 15.027 2.38263 14.9894 2.96422 15.0561C2.90054 14.9951 3.16722 14.9727 3.32862 14.9617C3.49002 14.9507 2.83978 14.8246 2.82758 14.8186C2.43584 14.6331 2.82051 14.639 2.89985 14.5382C2.93885 14.4895 2.8647 14.3667 2.80502 14.2945C2.75678 14.237 2.91432 14.2402 2.82521 14.179C2.81333 14.1708 2.52284 14.1196 2.51205 14.1156C2.17516 14.0002 2.87802 14.1624 3.00625 14.1776C3.47252 14.2334 3.72143 14.2601 3.51708 14.1584C3.47029 14.1351 2.46034 13.8917 2.40594 13.8542C2.33705 13.806 2.69934 13.8918 2.61793 13.8395C2.61129 13.8351 2.38616 13.7902 2.40034 13.7711C2.46318 13.6818 2.61605 13.6006 2.61439 13.4946C2.61504 13.4802 2.25474 13.4247 2.24984 13.4026C2.22725 13.2984 2.26182 13.1984 2.44797 13.1411C2.49485 13.1275 2.74139 13.194 2.81649 13.2047C3.27094 13.2691 2.62866 13.0898 2.61776 13.08C2.34042 12.8455 2.95659 12.844 2.7129 12.6141C2.69844 12.6013 2.01669 12.3788 2.62146 12.477C2.66172 12.4835 3.28014 12.5854 2.86799 12.4666C2.84221 12.4592 2.52307 12.4102 2.56262 12.383C2.60209 12.3557 2.40393 12.2545 2.75998 12.2839C2.87219 12.293 3.48965 12.3924 3.01326 12.2412C2.97991 12.2311 1.89607 11.9197 2.6596 12.0633C2.78529 12.0869 3.58669 12.2686 3.18691 12.1253C3.10939 12.0976 2.9264 12.0761 2.82052 12.0249C2.65727 11.9463 2.88425 11.9395 2.53795 11.8106C2.47661 11.7879 1.94053 11.6293 2.36033 11.6919C2.42607 11.7017 2.69182 11.7704 2.72528 11.7614C2.88571 11.7189 2.7241 11.6011 2.92626 11.5675C2.99735 11.5555 3.42689 11.6667 3.54909 11.6651C3.67127 11.6634 3.79536 11.6329 3.60421 11.5594C3.41302 11.4857 2.71652 11.361 2.67124 11.305C2.47505 11.0596 2.92199 10.9656 3.02462 10.7906C3.039 10.7662 2.81808 10.7351 2.79491 10.6961C2.79338 10.6936 2.79271 10.6911 2.793 10.6885C2.80951 10.5333 2.63982 10.2164 3.19379 10.2081C3.63745 10.2015 3.92564 10.4081 4.11492 10.3681C4.2053 10.3487 3.41513 10.1189 3.39216 10.1036C3.1578 9.95209 3.52695 9.97265 3.43768 9.86464C3.41914 9.84231 3.09104 9.78248 3.07885 9.76429C3.03434 9.70145 3.19113 9.68441 3.17584 9.63099C3.16822 9.60689 2.91976 9.55215 2.94348 9.5372C2.99737 9.50081 3.11129 9.48388 3.35393 9.49407C3.37604 9.49498 3.67735 9.5958 3.69692 9.56432C3.72773 9.51313 3.97293 9.49874 3.75193 9.37832C3.68538 9.34238 3.11999 9.2069 3.52024 9.25941C3.60385 9.27033 4.28031 9.44329 3.70487 9.25592C3.60925 9.22478 2.83698 8.95582 3.35647 9.03847C3.49319 9.0602 4.0551 9.16678 3.9732 9.1233C3.96 9.11689 3.65335 9.05649 3.62822 9.03059C3.54498 8.94058 3.5941 8.87865 3.51546 8.78724C3.49386 8.76269 3.17311 8.71442 3.15093 8.68032C3.08941 8.58674 3.19189 8.51256 3.30792 8.46289C3.35128 8.44476 3.60702 8.52619 3.63581 8.53103C4.104 8.61078 3.48675 8.44224 3.45302 8.42304C3.25161 8.30573 3.55562 8.3267 3.49288 8.24793C3.47635 8.22637 3.17711 8.16644 3.15148 8.15674C2.90154 8.05997 3.42766 8.21427 3.49155 8.20691C3.67228 8.18682 3.66477 8.11372 3.64177 8.04324C3.63289 8.01724 3.28311 7.9592 3.27912 7.93682C3.24886 7.8031 3.31196 7.68678 3.52968 7.61667C3.57129 7.60364 3.83248 7.68185 3.89401 7.69201C4.32438 7.76365 3.75901 7.57706 3.70669 7.55303C3.46768 7.44359 3.70619 7.48187 3.67296 7.4285C3.50623 7.1679 3.72422 6.94829 3.86795 6.77619C4.05393 6.55065 4.35405 6.41529 4.34886 6.15568C4.34885 6.13932 3.99336 6.06803 3.98883 6.05281C3.9465 5.86002 4.12578 5.72468 4.06694 5.52711C4.06274 5.51104 3.72437 5.44889 3.70643 5.4203C3.66724 5.36129 3.69995 5.30686 3.81805 5.28619C3.87501 5.27595 4.15337 5.37765 4.20487 5.3659C4.32542 5.33873 4.3635 5.28682 4.32373 5.21851C4.30609 5.18922 3.95645 5.14004 3.96009 5.10855C3.97792 4.8921 3.97005 4.67301 4.46358 4.57307C4.49748 4.56622 5.19325 4.72599 5.06804 4.66233C4.87639 4.61217 4.65025 4.55601 4.44504 4.50385C4.40965 4.17389 4.72437 3.93449 4.83708 3.6409C4.84176 3.62849 4.46931 3.55898 4.47649 3.5345C4.51761 3.39288 4.4507 3.22839 4.85192 3.17328C4.89121 3.16768 5.53484 3.33638 5.4479 3.26922C5.43197 3.25724 5.36199 3.17129 5.22602 3.11963C5.20545 3.11209 4.90123 3.04856 4.89763 3.02562C4.882 2.89364 4.98239 2.78436 5.19654 2.71008C5.23168 2.69823 5.54735 2.79911 5.57516 2.79137C5.77 2.73582 5.55279 2.56813 5.86752 2.54723C6.07935 2.53352 6.62813 2.6954 7.18237 2.79854C7.26057 2.81308 7.28248 2.77728 7.6006 2.85468C8.40057 3.04919 9.27042 3.28664 10.1237 3.49175C10.3074 3.53596 10.1229 3.43456 10.5584 3.57614C10.5875 3.58571 10.7251 3.66019 10.8731 3.70706C10.9754 3.73951 11.3014 3.80861 11.4311 3.85506C11.5607 3.90149 11.2863 3.84829 11.4372 3.90925C11.5899 3.97067 11.9598 4.05292 11.9924 4.10746ZM4.0499 14.9145C4.36925 14.9375 3.22558 14.7157 3.492 14.8069C3.50624 14.8116 4.03422 14.9135 4.0499 14.9145ZM4.90468 20.4212C5.0187 19.9104 4.55724 20.5099 4.47265 20.9192C4.42801 21.3454 4.89082 20.5847 4.90468 20.4212ZM5.96841 20.2021C5.86017 19.8057 5.95742 21.4554 6.0559 21.1108C6.06178 21.0912 5.97591 20.2249 5.96841 20.2021ZM7.29917 2.99199C7.3143 2.99527 7.33591 2.971 7.3212 2.96662C6.96596 2.86201 6.923 2.9106 7.29917 2.99199ZM6.47654 19.6739C6.39193 19.4664 6.41629 19.7285 6.51889 19.9878C6.60415 20.1957 6.58506 19.9312 6.47654 19.6739ZM5.64218 13.3214C5.65927 13.3245 5.6789 13.3076 5.58288 13.2873C5.27362 13.2221 5.35475 13.2691 5.64218 13.3214ZM7.27904 19.3263C7.13199 19.3277 6.50857 18.1118 6.67644 18.2035C6.70819 18.2194 6.81919 18.6173 6.89664 18.7168C7.04184 18.8962 6.70166 18.1091 6.95121 18.4982C6.99838 18.5687 7.28973 19.3285 7.27965 19.3281L7.27904 19.3263ZM5.42883 15.1534C5.44412 15.1554 5.46373 15.1304 5.44886 15.1268C5.08834 15.0428 5.04851 15.0939 5.42883 15.1534ZM6.60517 12.3027C6.63759 12.3082 6.68198 12.2512 6.65298 12.2423C6.07076 12.075 5.979 12.191 6.60517 12.3027ZM5.95775 17.1685C6.32219 17.2492 6.36034 17.29 5.89409 17.2514C5.9227 17.2248 5.93097 17.195 5.95775 17.1685Z" fill="var(--fill-0, #C0BD6D)"/>
<path id="Vector_2" d="M21.0039 6.6402C21.0624 6.79182 20.9088 6.91783 20.7287 6.99359C20.6727 7.01747 20.4819 6.93616 20.4344 6.94985C20.3417 6.97671 20.4233 7.05474 20.3162 7.07637C20.2797 7.08323 19.9744 6.96395 19.9433 6.9734C19.7752 7.0259 19.8259 7.14183 19.7289 7.21817C19.2505 7.59404 18.9847 8.02807 18.6894 8.46821C18.5924 8.61342 18.2479 8.71845 18.3195 8.92272C18.3282 8.94665 18.6055 9.0216 18.627 9.03239C18.9542 9.19901 18.4076 9.00536 18.3223 9.01975C17.9853 9.07732 17.9077 9.23518 17.9681 9.41204C17.9945 9.48754 18.5576 9.59803 18.233 9.56313C18.211 9.56089 17.9252 9.4536 17.8889 9.46055C17.8072 9.4765 17.8364 9.56495 17.8041 9.5871C17.7403 9.62934 17.7403 9.63964 17.72 9.69224C17.6898 9.76334 17.5178 9.80494 17.5588 9.90442C17.5684 9.92592 17.8734 9.99779 17.9157 10.0406C17.9578 10.0834 17.9102 10.1463 17.8324 10.1481C17.7545 10.1498 17.5235 10.0656 17.4685 10.0529C17.0044 9.94463 17.6061 10.2249 17.6183 10.2403C17.8219 10.5163 17.4123 10.5684 17.3563 10.7494C17.3145 10.887 17.3862 11.0709 17.3288 11.1963C17.2593 11.3453 17.0562 11.4261 17.0363 11.5859C17.0338 11.6026 17.3901 11.6946 17.3878 11.7153C17.3633 11.935 17.2602 12.1283 16.9587 12.2596C16.9281 12.2726 16.6289 12.1489 16.58 12.1561C16.2873 12.2026 15.6168 12.2107 16.9325 12.7087C16.8532 12.7778 16.7663 12.8646 16.4722 12.8559C16.2828 12.8504 15.9628 12.6966 16.0867 12.8024C16.1142 12.8261 16.4133 12.901 16.4324 12.9296C16.5126 13.0499 16.3874 13.1141 16.5121 13.2474C16.5381 13.2747 16.8026 13.353 16.8484 13.3729C17.2188 13.5354 16.5631 13.4041 16.5123 13.4045C16.1327 13.4104 16.2415 13.5366 16.1995 13.6404C16.1896 13.6645 16.5521 13.7468 16.5552 13.774C16.5669 13.9133 16.4962 14.0315 16.3013 14.1028C16.2571 14.1184 15.964 13.9986 15.9275 14.0012C15.7701 14.0138 16.3345 14.2058 16.1946 14.2213C16.1658 14.2248 15.9102 14.137 15.8813 14.1302C15.4269 14.0226 16.0471 14.2497 16.0584 14.2625C16.2146 14.4288 15.5363 14.2893 15.5969 14.4214C15.6048 14.4374 15.9394 14.5126 15.9418 14.5513C15.9591 14.8098 15.7927 15.0249 15.4601 15.1704C15.4088 15.1931 15.1719 15.0905 15.1411 15.0832C14.658 14.9706 15.2824 15.1937 15.3026 15.2127C15.4451 15.3579 14.8884 15.2757 15.6214 15.5752C15.2384 15.8785 15.5398 16.396 14.7447 16.5657C14.7354 16.5681 14.4269 16.4611 14.4096 16.4663C14.198 16.528 14.6887 16.6583 15.2558 16.9224C15.3982 16.9888 14.6653 16.8225 14.6113 16.8112C14.4124 16.7694 13.9557 16.6034 13.9163 16.598C13.6062 16.5583 15.14 17.0332 15.118 17.1047C15.1147 17.1061 14.8359 17.0078 14.8059 17.0049C14.7121 16.9958 14.8182 17.0496 14.7155 17.0372C14.4778 17.008 13.7292 16.7879 14.142 16.9883C14.1957 17.0141 15.0681 17.2761 15.0069 17.3269C14.9818 17.3469 14.9612 17.4641 14.8949 17.4778C14.8288 17.4916 14.5557 17.3816 14.5429 17.38C14.146 17.348 14.0028 17.2673 13.4415 17.1368C12.8822 17.007 14.1878 17.4063 14.3276 17.4695C14.4671 17.5326 14.1421 17.4984 14.0311 17.4802C13.9201 17.4619 13.7483 17.3867 13.6839 17.3813C13.2628 17.3474 14.3176 17.6249 14.5149 17.7199C14.982 17.9443 13.9993 17.694 13.8845 17.7282C13.8535 17.7374 14.0778 17.7927 14.0935 17.8146C14.1527 17.9006 13.8399 17.8422 14.0941 17.999C14.1355 18.0246 14.6983 18.2641 14.2608 18.166C14.1977 18.1517 13.9618 18.0611 13.8996 18.0702C13.8065 18.0835 13.7317 18.1371 13.7989 18.2043C13.8487 18.254 14.2563 18.3438 14.1209 18.3438C14.0604 18.3437 13.8386 18.2384 13.7444 18.2444C13.6503 18.2501 13.6344 18.3359 13.6325 18.3699C13.6307 18.4038 13.9369 18.4816 13.9564 18.4906C14.0676 18.5425 14.1936 18.6485 14.1915 18.6537C14.1435 18.9336 13.5585 19.0209 13.6438 19.3351C13.65 19.3596 13.9715 19.4461 13.9757 19.4509C14.0864 19.563 13.2607 19.2414 12.963 19.2013C13.6088 19.3975 13.4831 19.3896 13.5381 19.4613C13.5651 19.496 13.8184 19.5618 13.8432 19.572C14.2105 19.7268 13.7139 19.5971 13.6119 19.5718C13.2367 19.479 13.6633 19.6418 13.4124 19.58C13.1633 19.5189 12.8131 19.368 12.8027 19.4169C13.0289 19.5029 13.642 19.6578 13.7282 19.7246C14.0544 19.977 13.502 20.0813 13.4184 20.175C13.335 20.2685 13.3664 20.3171 13.2631 20.3543C13.0763 20.4215 13.5362 20.5205 13.7182 20.6563C13.9001 20.7923 12.8121 20.4105 12.5726 20.3462C12.3333 20.2817 12.5729 20.3695 12.4391 20.341C12.3054 20.3125 12.1533 20.2347 12.0953 20.2487C12.0373 20.2628 12.432 20.4758 12.6757 20.5643C13.1921 20.7516 13.7528 20.8888 13.5352 20.9057C13.5224 20.9065 13.238 20.8007 13.2034 20.8087C12.9379 20.8745 12.8795 21.0116 12.6398 21.0854C12.6064 21.0954 12.2902 20.9772 12.2671 20.9818C12.0257 21.0302 12.5806 21.1609 13.1631 21.4131C12.3662 21.1461 11.8651 21.0257 11.8332 21.1102C11.8138 21.1609 12.1665 21.2625 12.4026 21.3738C12.4738 21.4073 12.222 21.368 12.3845 21.4266C12.9156 21.6184 13.5287 21.7741 13.2609 21.787C13.2483 21.7873 12.9577 21.6819 12.9356 21.6897C12.7914 21.7398 13.3509 21.9279 13.3894 22.0433C13.4196 22.1338 13.0351 22.1564 12.9528 22.2225C12.0525 21.9363 12.2338 22.0806 12.8448 22.3089C12.8022 22.3552 12.8188 22.4251 12.7163 22.4505C12.6813 22.4594 12.4242 22.3651 12.3953 22.3585C11.9422 22.2539 12.539 22.4684 12.559 22.4876C12.7491 22.6876 12.2584 22.6466 12.6676 22.9094C12.6824 22.9188 13.306 23.1234 12.8388 23.0116C12.8066 23.0038 12.5346 22.8737 12.4945 22.9239C12.4544 22.9741 12.0849 22.9759 12.3498 23.1468C12.4136 23.188 12.9063 23.397 12.4971 23.3106C12.4415 23.2988 12.2638 23.2364 12.1616 23.2124C11.8357 23.1361 12.464 23.3491 11.9177 23.2079C11.3714 23.0667 10.9503 22.9988 11.2957 23.1959C11.3057 23.2018 11.801 23.3791 11.7852 23.4017C11.7594 23.4378 11.637 23.4618 11.627 23.5048C11.6224 23.5254 11.9378 23.6108 11.9423 23.6161C12.0742 23.8062 11.7663 23.8147 11.6002 23.9213C11.5691 23.9406 11.9696 24.1508 11.6177 24.0962C11.2325 24.0365 9.72254 23.496 10.0457 23.7405C10.1749 23.8387 12.0929 24.5172 11.0587 24.2938C11.2501 24.5545 10.6828 24.5606 10.9806 24.8554C10.9937 24.8686 11.5267 25.0655 11.5132 25.0825C11.4922 25.1073 11.2343 25.0432 11.2112 25.0584C11.1079 25.1201 11.2995 25.2669 11.2397 25.339C11.2176 25.3665 10.9595 25.2729 10.9331 25.3057C10.9069 25.3386 11.2434 25.4723 11.0611 25.4705C10.9222 25.4688 10.2063 25.2848 10.1082 25.3097C10.8018 25.5309 10.7765 25.5613 10.9402 25.6812C10.972 25.7043 11.2177 25.7679 11.2452 25.7828C11.3625 25.845 11.1555 25.803 11.2842 25.8677C11.3151 25.8832 11.5521 25.9584 11.5907 25.9753C11.9283 26.1225 11.3758 26.0148 11.2796 25.9959C10.9143 25.9245 11.2168 26.0406 11.0682 26.0274C10.9197 26.0142 10.7605 25.9136 10.665 25.9227C10.4673 25.9418 10.4755 26.0491 10.4408 26.121C10.4284 26.1501 10.7514 26.2296 10.757 26.2361C10.8177 26.3235 10.4611 26.28 11.0807 26.5136C9.43702 26.0419 11.227 26.601 10.8726 26.5867C10.844 26.5854 10.0704 26.3508 9.96568 26.2882C9.86109 26.2257 10.1149 26.2611 9.95027 26.1681C9.91165 26.1462 9.20527 25.8675 9.16369 25.8468C8.83877 25.6848 9.99314 26.0409 10.0573 26.0581C10.7503 26.2413 9.99165 25.9338 9.94301 25.9005C9.72012 25.7483 9.90209 25.7363 9.74587 25.6185C9.64506 25.5419 8.89175 25.2997 8.92494 25.275C9.03483 25.1929 10.0992 25.4882 9.21809 25.0998C9.0302 25.0169 8.19875 24.7778 8.87154 24.9057C8.91395 24.9137 9.52524 25.044 9.16041 24.8925C9.1144 24.8734 8.87401 24.7976 8.85554 24.7858C8.7365 24.7079 8.9357 24.744 8.85659 24.6751C8.77748 24.6062 8.65592 24.5151 8.75182 24.4953C8.80924 24.4832 9.26817 24.5894 9.38196 24.6109C9.70951 24.6735 9.20424 24.4702 9.59395 24.568C9.98565 24.6662 10.5551 24.8959 10.8226 24.9135C10.1989 24.7141 9.55958 24.5065 8.93272 24.3046C8.99678 24.1783 9.24009 24.111 9.25471 23.9686C9.2559 23.9507 8.91484 23.8617 8.90746 23.8398C8.8778 23.748 9.13779 23.7581 9.06703 23.6503C9.01097 23.5664 8.67636 23.3882 8.60668 23.297C9.33337 23.4842 9.12027 23.3143 9.20699 23.2671C9.23705 23.2505 9.42739 23.3123 9.49499 23.3151C9.74538 23.3241 9.1045 23.1545 9.01065 23.1057C8.61022 22.8968 10.0415 23.3417 10.0341 23.2422C10.0342 23.2371 9.2904 22.9392 9.24544 22.9164C8.9519 22.7686 9.51323 22.9918 9.57942 22.9782C9.70036 22.9535 9.89486 22.9712 9.69292 22.8336C9.63301 22.7931 9.17299 22.5962 9.5523 22.6741C9.60197 22.6843 9.85292 22.7666 9.86893 22.7672C10.1378 22.772 9.34713 22.5202 9.09231 22.3939C8.83755 22.2677 9.40407 22.3758 9.56563 22.4124C9.98369 22.5068 9.73138 22.4937 9.77076 22.5081C10.2395 22.6801 10.1724 22.6073 10.2239 22.5842C11.0014 22.824 10.9706 22.7591 10.2742 22.5592C10.1981 22.5374 10.2616 22.5882 10.2239 22.5842C9.47267 22.3123 9.39258 22.2264 10.1231 22.3902C10.4655 22.467 10.8457 22.6167 10.7308 22.4852C10.679 22.4257 10.1401 22.2722 10.0054 22.1915C9.69808 22.0074 10.2289 22.0619 10.1762 21.9554C10.157 21.9168 9.85547 21.8533 9.83231 21.8237C9.76992 21.745 10.0043 21.7669 9.90894 21.6774C9.89993 21.6692 9.59006 21.5845 9.59146 21.5664C9.59609 21.428 9.82713 21.3791 9.87451 21.248C9.89727 21.1846 9.76468 21.0165 9.81962 20.9608C9.91303 20.8635 10.4029 20.8624 10.3259 20.7298C10.2769 20.6437 9.96632 20.5611 9.7664 20.4677C9.37882 20.2869 10.1328 20.4217 10.2489 20.4445C10.2528 20.4452 10.3075 20.5233 10.474 20.5434C10.8068 20.6297 10.2502 20.4455 10.2489 20.4445C10.324 20.459 10.4284 20.3706 10.3768 20.3302C10.3485 20.3082 10.0564 20.2233 10.0471 20.2135C9.83414 19.984 9.8071 19.8128 9.99 19.706C9.99669 19.7052 10.3199 19.8116 10.3316 19.8085C10.5032 19.7674 10.1238 19.5866 9.91072 19.4407C9.69774 19.2949 9.79453 19.2631 10.3649 19.3967C10.3118 19.3207 10.5825 19.3211 10.7459 19.3237C10.9094 19.3264 10.2798 19.1207 10.2685 19.1129C9.90748 18.8645 10.2913 18.9081 10.3876 18.7991C10.4344 18.7476 10.3806 18.5992 10.3321 18.5122C10.2927 18.443 10.4506 18.4587 10.3709 18.3813C10.3603 18.3709 10.077 18.2886 10.0668 18.2832C9.74712 18.1239 10.4266 18.3665 10.5528 18.3943C11.0118 18.4957 11.2574 18.5462 11.0688 18.412C11.0256 18.3812 10.0501 18.0229 10.0013 17.9761C9.93953 17.9158 10.2899 18.0419 10.2162 17.9759C10.2103 17.9703 9.99116 17.9019 10.0084 17.8809C10.0855 17.7828 10.2512 17.7017 10.2658 17.579C10.2686 17.5626 9.91501 17.4732 9.91339 17.4476C9.90607 17.3274 9.956 17.214 10.1515 17.161C10.2007 17.1482 10.4387 17.2411 10.5126 17.2583C10.9602 17.362 10.341 17.1131 10.3314 17.1012C10.0868 16.8138 10.7073 16.8489 10.4954 16.5677C10.4827 16.5521 9.82818 16.2556 10.4231 16.4034C10.4627 16.4132 11.071 16.5657 10.6729 16.4049C10.648 16.3949 10.3336 16.3203 10.3773 16.291C10.421 16.2617 10.2357 16.1339 10.5903 16.1866C10.702 16.2032 11.3102 16.3509 10.8516 16.1501C10.8195 16.1364 9.77109 15.7189 10.5204 15.9248C10.6437 15.9587 11.4258 16.2109 11.0432 16.0233C10.969 15.9871 10.7876 15.953 10.6881 15.888C10.5347 15.7881 10.7641 15.7923 10.4332 15.6245C10.3746 15.595 9.85624 15.3843 10.2707 15.4775C10.3357 15.4921 10.594 15.5849 10.629 15.5761C10.7966 15.5343 10.6501 15.389 10.8587 15.3588C10.9321 15.3479 11.35 15.4973 11.4735 15.5008C11.597 15.5043 11.7265 15.4737 11.5439 15.3789C11.3612 15.2841 10.6756 15.1081 10.6376 15.0405C10.4728 14.7466 10.937 14.6536 11.0642 14.4523C11.0831 14.4225 10.8334 14.3733 10.844 14.3238C10.8819 14.1412 10.7523 13.7643 11.3132 13.7726C11.7626 13.7792 12.0262 14.0327 12.2229 13.9914C12.3169 13.9712 11.5488 13.6747 11.5276 13.6559C11.3108 13.4698 11.6814 13.5051 11.6053 13.3751C11.5895 13.3483 11.2657 13.2675 11.2557 13.2457C11.2189 13.1705 11.3799 13.1545 11.3714 13.0911C11.3668 13.0624 11.1228 12.9904 11.1487 12.9735C11.208 12.9322 11.3252 12.9161 11.5693 12.9347C11.5916 12.9364 11.883 13.0644 11.907 13.0276C11.9449 12.9677 12.1948 12.9575 11.987 12.8091C11.9243 12.7648 11.3702 12.5889 11.7682 12.6619C11.8513 12.6771 12.513 12.9001 11.9554 12.6626C11.8628 12.623 11.1166 12.2842 11.6312 12.3961C11.7667 12.4255 12.3213 12.5666 12.2441 12.5127C12.2316 12.5048 11.9292 12.4253 11.9072 12.3939C11.8347 12.2849 11.8924 12.2128 11.8246 12.1029C11.8058 12.0734 11.4876 12.008 11.4695 11.9671C11.4195 11.8545 11.5326 11.7693 11.6563 11.7136C11.7025 11.6933 11.9508 11.7958 11.9793 11.8023C12.4429 11.9078 11.8399 11.6933 11.8083 11.6697C11.6195 11.5258 11.9245 11.5579 11.871 11.4632C11.857 11.4374 11.5618 11.3594 11.5371 11.3473C11.2965 11.227 11.8093 11.4219 11.8749 11.4146C12.0604 11.3947 12.0622 11.3077 12.0478 11.2237C12.0421 11.1927 11.6955 11.1161 11.6943 11.0895C11.6807 10.9303 11.7592 10.794 11.9885 10.7151C12.0323 10.7005 12.2868 10.7988 12.3478 10.8121C12.7745 10.9059 12.2258 10.6727 12.1758 10.6432C11.9477 10.5084 12.1843 10.5587 12.1573 10.4948C12.0217 10.1814 12.2697 9.92566 12.437 9.72309C12.6534 9.45863 12.9746 9.30179 13.0016 8.99294C13.0036 8.97341 12.6524 8.88283 12.6497 8.8646C12.6309 8.63416 12.8294 8.47581 12.7942 8.23976C12.7919 8.22058 12.4568 8.14137 12.4422 8.10711C12.4098 8.03612 12.4497 7.97174 12.5719 7.94889C12.6309 7.93754 12.9003 8.06283 12.954 8.04959C13.0795 8.01899 13.1244 7.95788 13.0926 7.8757C13.0784 7.8405 12.7302 7.77687 12.7378 7.73936C12.7826 7.48166 12.8016 7.22067 13.3142 7.10781C13.3494 7.10009 14.0348 7.3 13.9157 7.22237C13.7277 7.15997 13.5055 7.08995 13.3039 7.025C13.3088 6.63079 13.6573 6.34911 13.8077 5.99976C13.814 5.985 13.445 5.89741 13.4553 5.86827C13.5145 5.69946 13.4669 5.50235 13.8804 5.44115C13.9209 5.43492 14.5526 5.64415 14.4727 5.56285C14.458 5.54833 14.3977 5.44481 14.2662 5.38146C14.2463 5.37221 13.9457 5.2927 13.9449 5.26523C13.9454 5.10721 14.0606 4.97785 14.2868 4.89143C14.3239 4.87766 14.6315 5.00192 14.6606 4.99297C14.865 4.92878 14.6655 4.72574 14.9872 4.7043C15.2036 4.6903 15.74 4.89017 16.2891 5.01983C16.3666 5.03811 16.3932 4.99553 16.7062 5.09172C17.4932 5.33348 18.3457 5.62739 19.1854 5.88242C19.3662 5.93739 19.1917 5.814 19.6157 5.9883C19.644 6.00008 19.7743 6.09074 19.9186 6.14849C20.0183 6.18847 20.3402 6.27482 20.466 6.33187C20.5917 6.38888 20.3201 6.32214 20.4655 6.39677C20.6128 6.47199 20.9776 6.57457 21.0039 6.6402ZM11.4771 19.3342C11.7934 19.3888 10.6844 19.0319 10.9361 19.1604C10.9496 19.167 11.4615 19.3316 11.4771 19.3342ZM10.0778 24.3763C10.5848 24.4772 9.87598 24.2128 9.48555 24.1313C9.09553 24.0499 9.92409 24.3458 10.0778 24.3763ZM10.2591 25.048C10.6653 25.1071 9.09313 24.5997 9.39029 24.7677C9.40704 24.7773 10.2355 25.0446 10.2591 25.048ZM16.3836 5.2526C16.3986 5.25669 16.4235 5.2279 16.4091 5.22248C16.0619 5.09332 16.0123 5.15096 16.3836 5.2526ZM10.4735 25.7255C10.6928 25.7731 10.4647 25.6388 10.192 25.5796C9.97258 25.5319 10.2007 25.6663 10.4735 25.7255ZM13.3417 17.5586C13.3584 17.5632 13.3809 17.544 13.2872 17.515C12.9852 17.4214 13.0598 17.4815 13.3417 17.5586ZM10.194 26.6736C10.2973 26.5531 11.6252 26.8796 11.4305 26.9848C11.3953 27.0039 11.0342 26.7946 10.9059 26.7925C10.6719 26.7889 11.4756 27.0894 11.0172 27.0164C10.9333 27.0029 10.1852 26.6795 10.1923 26.6727C10.1929 26.673 10.1934 26.6733 10.194 26.6736ZM12.8189 19.7319C12.8339 19.7357 12.8583 19.707 12.8439 19.7016C12.4969 19.5723 12.4476 19.63 12.8189 19.7319ZM14.4689 16.3813C14.5008 16.3893 14.5543 16.3218 14.5262 16.3102C13.9621 16.088 13.8522 16.224 14.4689 16.3813ZM12.9284 22.2163C13.2718 22.3644 13.2994 22.4208 12.8448 22.3089C12.8798 22.2805 12.8952 22.2455 12.9284 22.2163Z" fill="var(--fill-0, #C0BD6D)"/>
</g>
</svg>
