<svg preserveAspectRatio="none" width="100%" height="100%" overflow="visible" style="display: block;" viewBox="0 0 12 16" fill="none" xmlns="http://www.w3.org/2000/svg">
<g id="opening quotation mark ">
<path id="Vector" d="M5.77569 2.54872C5.81947 2.62041 5.76765 2.7117 5.69778 2.77504C5.67609 2.79517 5.58503 2.77977 5.56591 2.79321C5.52863 2.81946 5.57191 2.84734 5.52756 2.87215C5.51245 2.88023 5.36818 2.85983 5.35565 2.86837C5.28791 2.91468 5.32094 2.96453 5.28556 3.01178C5.11089 3.24439 5.02494 3.46128 4.92191 3.67795C4.88787 3.75018 4.74218 3.81796 4.78511 3.90223C4.79027 3.91219 4.91689 3.9278 4.92694 3.9312C5.08054 3.98423 4.82849 3.93333 4.7916 3.94458C4.64596 3.98954 4.62009 4.06123 4.65551 4.1348C4.67098 4.16584 4.92543 4.18331 4.78018 4.18558C4.77036 4.18578 4.63867 4.15485 4.62298 4.15972C4.58765 4.17075 4.60489 4.2072 4.59165 4.2185C4.56543 4.24018 4.56596 4.24448 4.55956 4.2678C4.54965 4.29942 4.47529 4.32645 4.49814 4.36645C4.50338 4.37513 4.6416 4.39125 4.66227 4.40751C4.68289 4.42372 4.66463 4.45302 4.63027 4.45749C4.59587 4.46195 4.48987 4.43677 4.46494 4.43391C4.25468 4.40949 4.53351 4.50081 4.53956 4.50687C4.64174 4.61559 4.46254 4.65576 4.44511 4.73492C4.43239 4.79462 4.47138 4.87029 4.45089 4.92544C4.42565 4.99243 4.33917 5.03264 4.33614 5.10174C4.3357 5.10881 4.49698 5.13454 4.49676 5.1433C4.49414 5.23681 4.45547 5.32229 4.32635 5.38877C4.3133 5.39521 4.17627 5.35357 4.15488 5.35824C4.02704 5.38717 3.73009 5.41382 4.33057 5.57862C4.29788 5.61003 4.26215 5.65037 4.13157 5.65597C4.04751 5.65963 3.90043 5.60561 3.95897 5.64578C3.97199 5.65483 4.10708 5.67664 4.11653 5.68801C4.15623 5.73563 4.10272 5.76742 4.1625 5.81917C4.17498 5.82974 4.29481 5.85424 4.31578 5.86111C4.48543 5.91744 4.19043 5.88304 4.16793 5.88485C4.07101 5.89319 4.04738 5.91332 4.04178 5.93765L4.04804 5.90927C4.04509 5.92629 4.05199 5.94515 4.04675 5.9638C4.04381 5.97408 4.20817 5.98944 4.21117 6.00022C4.22449 6.05635 4.20079 6.10658 4.11946 6.14595C4.101 6.15454 3.96471 6.12153 3.94881 6.12452C3.88039 6.13799 4.14047 6.18582 4.07991 6.19967C4.06748 6.20266 3.94963 6.18081 3.93647 6.17959C3.72991 6.16064 4.01683 6.21955 4.0226 6.22397C4.10187 6.28245 3.79472 6.26397 3.82979 6.31458C3.83431 6.32064 3.98622 6.33243 3.98974 6.34801C4.01393 6.45277 3.95518 6.54965 3.81877 6.62986C3.79776 6.64241 3.68687 6.61458 3.67282 6.61344C3.45311 6.59656 3.74233 6.65016 3.75246 6.65673C3.82486 6.70742 3.57471 6.70847 3.91695 6.78607C3.76939 6.93433 3.93762 7.12793 3.60064 7.24923C3.59671 7.25083 3.45387 7.22671 3.44664 7.22995C3.35809 7.26919 3.58256 7.29113 3.84993 7.36325C3.91707 7.38136 3.58383 7.36039 3.55934 7.35925C3.46911 7.35496 3.25704 7.31618 3.23939 7.31652C3.10053 7.32039 3.80692 7.41639 3.80228 7.44734C3.80095 7.44814 3.67168 7.42574 3.65835 7.4265C3.61653 7.42885 3.6669 7.44418 3.62093 7.44574C3.5146 7.44927 3.17062 7.4073 3.36589 7.46309C3.39125 7.47024 3.79247 7.52132 3.76923 7.54629C3.75962 7.55618 3.75882 7.60595 3.73074 7.61597C3.70268 7.62599 3.57512 7.59845 3.56938 7.59862C3.39299 7.61146 3.32447 7.58755 3.06897 7.5705C2.81443 7.55357 3.41544 7.63281 3.48126 7.64978C3.54688 7.66671 3.40187 7.67391 3.3519 7.6737C3.3019 7.67344 3.2212 7.65365 3.19257 7.65563C3.00543 7.66932 3.48781 7.71471 3.58106 7.74098C3.80186 7.80304 3.35303 7.76418 3.30506 7.78586C3.2921 7.79172 3.39444 7.79984 3.40287 7.80789C3.43492 7.83955 3.29353 7.83597 3.41614 7.8841C3.43611 7.89197 3.69989 7.95408 3.50102 7.94224C3.47235 7.94048 3.36243 7.9185 3.3358 7.92633C3.29586 7.93799 3.26683 7.96506 3.30105 7.98848C3.32636 8.00574 3.51154 8.01618 3.45211 8.02506C3.42558 8.02898 3.32086 7.99997 3.27993 8.0086C3.23904 8.01711 3.23807 8.05374 3.23961 8.06789C3.24123 8.08207 3.38103 8.09424 3.3902 8.09664C3.44264 8.11092 3.50535 8.14654 3.50482 8.14885C3.50327 8.26814 3.25256 8.34224 3.31155 8.46713C3.31597 8.4769 3.46304 8.4921 3.46522 8.49382C3.52151 8.53323 3.13693 8.45294 3.00348 8.45534C3.30046 8.49525 3.24475 8.50001 3.27379 8.5262C3.28801 8.53892 3.40372 8.54995 3.41531 8.5526C3.58716 8.59344 3.36022 8.57142 3.3137 8.56746C3.14259 8.55294 3.341 8.59323 3.22661 8.58363C3.11307 8.57412 2.94901 8.53386 2.9478 8.55471C3.05296 8.57601 3.33275 8.60127 3.37513 8.62355C3.53548 8.70763 3.29967 8.78633 3.26911 8.83054C3.23862 8.87454 3.25558 8.89285 3.21257 8.91483C3.13483 8.95433 3.34347 8.96725 3.43225 9.01269C3.52098 9.05833 3.01795 8.96561 2.9085 8.95336C2.79911 8.94106 2.91012 8.96304 2.84947 8.9593C2.78883 8.95555 2.71694 8.93243 2.69234 8.94174C2.66777 8.95096 2.85503 9.01551 2.96786 9.0377C3.2069 9.08464 3.46224 9.10822 3.36761 9.12826C3.362 9.12936 3.23021 9.10233 3.21548 9.10768C3.10276 9.15159 3.08564 9.21163 2.98457 9.25635C2.97048 9.26237 2.82409 9.2313 2.81422 9.2345C2.711 9.26772 2.96312 9.29083 3.23471 9.3633C2.8678 9.29694 2.63992 9.27521 2.631 9.31146C2.6255 9.33327 2.78687 9.3561 2.89743 9.38932C2.93074 9.39946 2.81747 9.39694 2.89247 9.41247C3.1376 9.46342 3.41683 9.49479 3.29943 9.51534C3.29388 9.51618 3.15978 9.48789 3.15049 9.49239C3.11745 9.5081 3.17862 9.52949 3.24499 9.55332C3.30052 9.57349 3.35969 9.59542 3.37027 9.61694C3.38851 9.65382 3.2199 9.68414 3.18699 9.71622C2.77454 9.64178 2.86237 9.69184 3.14372 9.75812C3.1272 9.7801 3.13799 9.80881 3.09401 9.82431C3.079 9.82965 2.96077 9.80233 2.94767 9.80094C2.74235 9.77841 3.01651 9.84043 3.02626 9.84763C3.11987 9.92325 2.90092 9.92847 3.09375 10.0209C3.10071 10.0241 3.38556 10.0837 3.17389 10.057C3.15932 10.055 3.03331 10.0117 3.01772 10.0348C3.00206 10.0582 2.83882 10.0734 2.96296 10.1352C2.99287 10.15 3.21932 10.2191 3.03465 10.1987C3.00958 10.1958 2.92847 10.1763 2.88224 10.1702C2.73495 10.1505 3.02143 10.2166 2.77403 10.1775C2.52659 10.1387 2.33803 10.1235 2.49831 10.1939C2.50295 10.1961 2.72883 10.2534 2.72261 10.2634C2.71251 10.2793 2.65917 10.2931 2.65619 10.3116C2.65485 10.3203 2.79748 10.3462 2.7997 10.3483C2.86446 10.424 2.72806 10.4374 2.65743 10.4865C2.64426 10.4953 2.82761 10.5734 2.66998 10.5595C2.49756 10.5436 1.81373 10.3533 1.96399 10.4454C2.02415 10.4819 2.89078 10.7265 2.42679 10.6536C2.51723 10.7591 2.26589 10.7686 2.40226 10.8876C2.40832 10.8928 2.64739 10.9698 2.64155 10.9773C2.63244 10.9881 2.51718 10.9637 2.50708 10.9702C2.46194 10.9969 2.54836 11.0569 2.52219 11.0879C2.51252 11.0996 2.39726 11.0618 2.38577 11.0755C2.37443 11.0891 2.52456 11.1441 2.44354 11.144C2.38182 11.1438 2.06314 11.0682 2.01984 11.0781C2.32866 11.1697 2.3176 11.1822 2.39053 11.2324C2.40469 11.2421 2.51395 11.2686 2.52618 11.2749C2.57835 11.3011 2.48632 11.2835 2.54353 11.3107C2.55726 11.3173 2.66261 11.3489 2.67978 11.3561C2.82975 11.4182 2.58403 11.3731 2.54136 11.3649C2.37909 11.3344 2.5134 11.3836 2.44735 11.3779C2.38138 11.372 2.31085 11.3294 2.26839 11.3329C2.18061 11.3401 2.18408 11.3847 2.16847 11.4145C2.16289 11.4265 2.30603 11.4615 2.30848 11.4642C2.33505 11.5013 2.17697 11.4808 2.45099 11.5824C1.72327 11.3748 2.51555 11.6199 2.35814 11.6119C2.34543 11.6111 2.00313 11.5077 1.95695 11.4809C1.91081 11.454 2.02331 11.4706 1.95059 11.4308C1.93356 11.4214 1.62103 11.3008 1.60261 11.292C1.45879 11.223 1.97 11.3785 1.99844 11.3859C2.30549 11.4665 1.96963 11.3339 1.94804 11.3201C1.84934 11.2558 1.92996 11.2521 1.86056 11.2029C1.81577 11.1709 1.48133 11.0678 1.49586 11.0582C1.54385 11.0266 2.01695 11.1508 1.62428 10.9901C1.54048 10.956 1.17067 10.8563 1.46919 10.9111C1.48797 10.9147 1.75967 10.969 1.59667 10.9073C1.57612 10.8996 1.46899 10.8685 1.46069 10.8638C1.40708 10.8327 1.49555 10.8477 1.45964 10.8203C1.42368 10.7931 1.36852 10.7572 1.41052 10.7497C1.43559 10.7454 1.64001 10.7878 1.69066 10.7963C1.83646 10.8209 1.60979 10.7406 1.78366 10.779C1.95854 10.8171 2.21403 10.9078 2.33291 10.9132C2.05367 10.8355 1.76739 10.7546 1.48666 10.6761C1.51233 10.627 1.61807 10.6003 1.62096 10.5442C1.62101 10.5373 1.4682 10.5047 1.46434 10.4963C1.44866 10.4614 1.56366 10.4633 1.5292 10.4222C1.50205 10.3899 1.3487 10.3251 1.31487 10.2911C1.64149 10.3547 1.54173 10.2919 1.57833 10.2721C1.59101 10.2651 1.67711 10.2863 1.70703 10.2863C1.81779 10.2856 1.52904 10.2303 1.48587 10.2129C1.30148 10.1392 1.94918 10.2867 1.94235 10.2471C1.94224 10.245 1.60279 10.1435 1.58203 10.1356C1.44677 10.0841 1.70311 10.1594 1.73175 10.1527C1.78403 10.1407 1.87062 10.1428 1.77598 10.0933C1.74793 10.0787 1.53669 10.0135 1.70722 10.0345C1.72955 10.0372 1.84371 10.063 1.8508 10.0629C1.96964 10.0574 1.61019 9.97913 1.49215 9.93711C1.37413 9.89513 1.62857 9.92212 1.70149 9.93163C1.89008 9.95643 1.77822 9.95883 1.79623 9.96338C2.01057 10.0177 1.97779 9.99071 1.99953 9.97967C2.3532 10.051 2.33681 10.0258 2.02056 9.96822C1.98601 9.96195 2.01635 9.98005 1.99953 9.97967C1.656 9.89471 1.61642 9.86468 1.94619 9.90578C2.10074 9.92511 2.27549 9.9718 2.2187 9.923C2.19307 9.9009 1.9481 9.85829 1.88482 9.83092C1.74046 9.76839 1.97689 9.7718 1.94833 9.73087C1.93793 9.71614 1.80182 9.70237 1.7901 9.69142C1.75857 9.66245 1.8628 9.66275 1.81608 9.63087C1.81168 9.62797 1.67073 9.6065 1.67037 9.59934C1.66494 9.54464 1.76385 9.5161 1.77714 9.4625C1.78352 9.43656 1.71548 9.37555 1.73622 9.35146C1.74898 9.33605 1.78532 9.32313 1.82455 9.31029C1.89357 9.28852 1.9716 9.26696 1.94485 9.23517C1.91805 9.20313 1.77638 9.18578 1.68271 9.15854C1.50106 9.10624 1.84079 9.12178 1.89331 9.12464C1.89505 9.12473 1.92396 9.15344 1.9984 9.15281C2.15013 9.17012 1.89392 9.12498 1.89331 9.12464C1.92727 9.12637 1.96746 9.08578 1.94223 9.07214C1.92843 9.06477 1.79464 9.04612 1.78996 9.04271C1.68183 8.96132 1.65865 8.89496 1.73191 8.84174C1.7348 8.84102 1.88375 8.86586 1.88867 8.86397C1.96133 8.83782 1.78285 8.78561 1.67951 8.73917C1.57623 8.69269 1.61656 8.67441 1.87595 8.69521C1.84758 8.66717 1.96637 8.65184 2.03834 8.64309C2.11029 8.63441 1.81996 8.58826 1.81449 8.58574C1.6392 8.50599 1.81048 8.50149 1.84532 8.45088C1.86239 8.42692 1.82846 8.37003 1.80119 8.33736C1.77915 8.31151 1.84948 8.30818 1.80915 8.28157C1.80377 8.27799 1.67376 8.26199 1.66891 8.26043C1.51755 8.21538 1.83253 8.2721 1.88986 8.27563C2.09831 8.28839 2.20959 8.29365 2.11751 8.25041C2.09643 8.24043 1.64345 8.15521 1.61872 8.13921C1.58741 8.1185 1.74995 8.14797 1.71301 8.12565C1.71 8.12376 1.60908 8.10957 1.61517 8.09993C1.64213 8.05492 1.70909 8.01134 1.70688 7.96001C1.70696 7.95306 1.54555 7.93904 1.54304 7.92864C1.53137 7.87984 1.54525 7.83029 1.62727 7.79572C1.64795 7.78734 1.75892 7.81012 1.79258 7.81239C1.99623 7.82607 1.707 7.7638 1.70197 7.75955C1.57437 7.65715 1.84903 7.63117 1.73622 7.52894C1.72954 7.5233 1.42145 7.4438 1.69291 7.46578C1.71098 7.46725 1.98862 7.49029 1.80263 7.44999C1.79099 7.44746 1.64779 7.43732 1.6649 7.42233C1.68197 7.4073 1.59166 7.36658 1.75099 7.36506C1.80119 7.36452 2.07844 7.38561 1.86309 7.33269C1.84804 7.32911 1.35863 7.22523 1.70192 7.26106C1.75842 7.267 2.11934 7.31997 1.93828 7.26742C1.90316 7.25732 1.82115 7.25513 1.77292 7.23471C1.69858 7.20338 1.79958 7.18999 1.64263 7.14208C1.61483 7.1337 1.37259 7.08035 1.56104 7.09168C1.59056 7.09344 1.71045 7.11492 1.72519 7.10894C1.79584 7.08056 1.72143 7.02957 1.81091 7.00317C1.84237 6.99378 2.0362 7.02839 2.09067 7.02174C2.14512 7.01509 2.19986 6.99382 2.11314 6.96629C2.02639 6.93875 1.71317 6.91066 1.69184 6.88485C1.59923 6.77302 1.79689 6.70279 1.83926 6.60982C1.84557 6.59605 1.73254 6.59172 1.73387 6.57029C1.73835 6.49054 1.65663 6.33934 1.90411 6.30603C2.10225 6.2798 2.23453 6.37024 2.31842 6.34022C2.35845 6.32578 2.00148 6.24944 1.99096 6.24283C1.8838 6.17711 2.04916 6.1686 2.00757 6.11807C1.99895 6.10755 1.85135 6.0937 1.84563 6.08498C1.82481 6.05487 1.89476 6.0377 1.88716 6.01113C1.88342 5.99917 1.77153 5.98363 1.78193 5.97479C1.80561 5.95294 1.85636 5.93841 1.96512 5.93113C1.97503 5.93045 2.11111 5.96725 2.11949 5.94999C2.13262 5.92216 2.24227 5.90199 2.14201 5.85088C2.11183 5.83563 1.85727 5.79357 2.03707 5.80073C2.07463 5.80216 2.37924 5.85841 2.11975 5.78961C2.07661 5.7782 1.7284 5.67584 1.96189 5.69315C2.02334 5.6977 2.27596 5.7257 2.23892 5.70709C2.23297 5.70435 2.09507 5.68801 2.08366 5.67555C2.0482 5.6345 2.06518 5.60098 2.0379 5.56069C2.04506 5.54869 2.045 5.50494 2.05279 5.49332C2.05112 5.49071 2.04926 5.48805 2.04718 5.48536C2.0379 5.47357 1.89471 5.45601 1.88533 5.43951C1.85933 5.39407 1.90642 5.35576 1.95906 5.32961C1.97873 5.32001 2.09231 5.35487 2.10515 5.35673C2.31399 5.38687 2.03963 5.31572 2.02477 5.307C1.93618 5.25302 2.07226 5.25719 2.04513 5.22001C2.03799 5.20986 1.90456 5.1865 1.89319 5.18229C1.78232 5.14014 2.0163 5.20494 2.04504 5.20005C2.12628 5.18692 2.12413 5.15007 2.11462 5.11622C2.11095 5.10367 1.95479 5.08262 1.95326 5.07176C1.94111 5.00776 1.97096 4.94839 2.06911 4.90995C2.08788 4.90271 2.20423 4.935 2.23171 4.93862C2.4239 4.96422 2.17241 4.88506 2.14915 4.87466C2.04306 4.82654 2.14962 4.8398 2.13517 4.81462C2.06275 4.6913 2.16177 4.57946 2.22674 4.49252C2.3107 4.37909 2.44556 4.30372 2.44242 4.17973C2.44239 4.17177 2.28311 4.14825 2.28106 4.14102C2.26155 4.04967 2.34067 3.98045 2.31243 3.88888C2.31039 3.88145 2.15864 3.86308 2.15031 3.85029C2.1322 3.82371 2.14592 3.79828 2.19844 3.78423C2.22373 3.7775 2.34927 3.81587 2.37212 3.80856C2.42562 3.79153 2.44183 3.76606 2.42301 3.73567C2.41471 3.72249 2.25795 3.71198 2.25909 3.69709C2.26345 3.5961 2.25488 3.49762 2.47142 3.43267C2.48629 3.4282 2.80022 3.47191 2.74277 3.44791C2.65611 3.43314 2.55394 3.41711 2.46119 3.40203C2.43557 3.25512 2.56541 3.13602 2.59947 3.00437C2.60086 2.9989 2.43278 2.9892 2.43459 2.97868C2.44492 2.91713 2.40506 2.85593 2.5773 2.80976C2.59415 2.80512 2.88836 2.83355 2.84555 2.81114C2.83775 2.80715 2.80094 2.77626 2.73754 2.76428C2.72797 2.76261 2.58999 2.75693 2.5867 2.74805C2.56997 2.69709 2.60483 2.64924 2.69148 2.60488C2.70572 2.59774 2.85213 2.6126 2.86355 2.60743C2.94355 2.56924 2.83331 2.5226 2.96735 2.48702C3.0576 2.46223 3.3115 2.47487 3.56174 2.46157C3.59705 2.45961 3.60275 2.44134 3.74824 2.4407C4.11415 2.43884 4.51476 2.45057 4.90476 2.44761C4.9888 2.44692 4.89836 2.41457 5.10134 2.43386C5.11494 2.43517 5.18223 2.4593 5.25103 2.46585C5.29863 2.47041 5.44667 2.46357 5.50751 2.47286C5.56836 2.48232 5.44423 2.49093 5.5156 2.50649C5.58787 2.52225 5.75636 2.51809 5.77569 2.54872ZM2.36008 8.60313C2.50267 8.60616 1.99153 8.5278 2.11079 8.56494C2.11716 8.56683 2.35308 8.603 2.36008 8.60313ZM1.99407 10.6998C2.22053 10.736 1.90131 10.636 1.72687 10.6066C1.55275 10.5769 1.92548 10.6886 1.99407 10.6998ZM2.08458 10.9712C2.26531 10.9941 1.56293 10.7915 1.69669 10.8585C1.70423 10.8623 2.07409 10.9699 2.08458 10.9712ZM3.63166 2.53631C3.63854 2.53624 3.64557 2.52292 3.63876 2.52246C3.47452 2.51217 3.46061 2.53784 3.63166 2.53631ZM2.18337 11.2502C2.28076 11.2706 2.17936 11.2142 2.05823 11.189C1.96082 11.1686 2.06227 11.2248 2.18337 11.2502ZM3.05495 7.75146C3.06262 7.75222 3.07112 7.74283 3.02795 7.73698C2.88888 7.71816 2.92584 7.73808 3.05495 7.75146ZM2.05623 11.6434C2.10278 11.5939 2.69071 11.7398 2.60349 11.7827C2.58772 11.7905 2.42867 11.7002 2.37166 11.6984C2.26779 11.6952 2.62284 11.827 2.41968 11.793C2.38251 11.7867 2.05231 11.6458 2.05547 11.643C2.05572 11.6431 2.05598 11.6433 2.05623 11.6434ZM2.9762 8.68401C2.98302 8.68464 2.9918 8.6713 2.98515 8.66995C2.82402 8.63816 2.80625 8.66502 2.9762 8.68401ZM3.4667 7.19104C3.48124 7.19235 3.50003 7.1609 3.48691 7.15795C3.22387 7.10262 3.18508 7.16612 3.4667 7.19104ZM3.17588 9.71483C3.3352 9.7598 3.35027 9.78224 3.14372 9.75812C3.15781 9.74397 3.16271 9.72885 3.17588 9.71483Z" fill="var(--fill-0, #C0BD6D)"/>
<path id="Vector_2" d="M10.9359 2.27119C10.9297 2.35716 10.8354 2.40982 10.7403 2.43375C10.7107 2.44136 10.6398 2.38503 10.6159 2.38825C10.569 2.39475 10.5916 2.44042 10.5396 2.44302C10.5219 2.44371 10.4058 2.36004 10.39 2.36254C10.3047 2.37662 10.3071 2.43947 10.2507 2.47095C9.97178 2.62735 9.78862 2.83881 9.59845 3.06821C9.53618 3.14306 9.36485 3.19608 9.37471 3.30935C9.376 3.32252 9.49551 3.36546 9.50418 3.37151C9.63667 3.46457 9.40613 3.35513 9.36511 3.36289C9.20365 3.39244 9.14978 3.48351 9.16027 3.58128C9.1648 3.6236 9.41409 3.68077 9.26751 3.66399C9.25756 3.66296 9.13618 3.60515 9.11862 3.60952C9.07933 3.61905 9.08422 3.66841 9.06702 3.68152C9.0332 3.70669 9.0324 3.71209 9.01805 3.7421C8.99729 3.78286 8.91373 3.80958 8.92365 3.8656C8.92613 3.87771 9.06085 3.91261 9.07653 3.93615C9.08285 3.94564 9.08213 3.9573 9.07658 3.96809C9.06862 3.98353 9.05022 3.99706 9.02867 3.99859C8.99254 4.00117 8.89293 3.95838 8.86862 3.95234C8.6632 3.90097 8.91702 4.04837 8.92165 4.05616C8.99302 4.20776 8.79929 4.24967 8.75982 4.35536C8.72996 4.43624 8.74987 4.53991 8.71498 4.6138C8.67253 4.7029 8.57342 4.75801 8.5544 4.85119C8.55222 4.861 8.71111 4.89864 8.7088 4.91069C8.68396 5.03894 8.62613 5.15393 8.48005 5.24605C8.46529 5.25511 8.33374 5.19864 8.3108 5.20534C8.17347 5.24681 7.86298 5.2914 8.44605 5.50799C8.40613 5.55309 8.36271 5.60736 8.22756 5.62007C8.14053 5.6282 7.99978 5.55725 8.05222 5.61199C8.06391 5.6242 8.19849 5.6501 8.20609 5.66559C8.23809 5.73064 8.17778 5.77629 8.23013 5.84626C8.24107 5.86054 8.35978 5.88972 8.38009 5.89839C8.54449 5.96963 8.24796 5.9341 8.22453 5.93776C8.04969 5.96601 8.09556 6.03229 8.07289 6.09616C8.06756 6.11094 8.23147 6.13464 8.23205 6.15031C8.23325 6.23039 8.19751 6.30416 8.10649 6.35923C8.08582 6.37144 7.95449 6.32239 7.93769 6.32647C7.86516 6.34525 8.11916 6.41696 8.05467 6.43612C8.04138 6.44024 7.92636 6.40749 7.91325 6.40559C7.70747 6.37595 7.9864 6.46365 7.99129 6.47018C8.05929 6.55549 7.75151 6.52487 7.77658 6.59822C7.77991 6.60698 7.93165 6.62546 7.932 6.64791C7.9352 6.79776 7.85658 6.93633 7.70365 7.04972C7.68005 7.06744 7.5728 7.02719 7.55876 7.02551C7.3392 7.0005 7.62236 7.07873 7.63142 7.08816C7.69547 7.16096 7.44196 7.16159 7.77494 7.2733C7.59934 7.48555 7.73969 7.75831 7.38254 7.9373C7.37831 7.9397 7.23711 7.90786 7.22934 7.91271C7.1344 7.97106 7.35853 7.99793 7.61973 8.09452C7.68533 8.11864 7.35098 8.09658 7.32631 8.0957C7.2356 8.09186 7.026 8.04172 7.00809 8.04269C6.86707 8.05229 7.56956 8.17119 7.56125 8.21502C7.55978 8.2162 7.43178 8.18778 7.41818 8.18921C7.3756 8.19372 7.42471 8.2141 7.37809 8.21767C7.27018 8.22559 6.92716 8.17654 7.11813 8.25056C7.14298 8.25995 7.5428 8.3202 7.51658 8.35629C7.50573 8.37064 7.49973 8.44117 7.47036 8.45641C7.44098 8.47165 7.31485 8.4373 7.30907 8.43776C7.12947 8.46298 7.06262 8.43149 6.80605 8.41784C6.55036 8.40471 7.15 8.493 7.21485 8.51448C7.27951 8.53586 7.13231 8.55245 7.08182 8.55452C7.03133 8.5565 6.95165 8.53165 6.92249 8.53591C6.732 8.56492 7.21538 8.60711 7.30725 8.64033C7.52485 8.71826 7.07489 8.68429 7.02458 8.71852C7.01098 8.7277 7.11373 8.73384 7.1216 8.74492C7.14729 8.78252 7.04511 8.7898 7.09311 8.83085C7.10085 8.83746 7.11249 8.84492 7.12916 8.85351C7.14871 8.86378 7.41076 8.93662 7.21085 8.93161C7.182 8.9309 7.07253 8.9061 7.04511 8.91902C7.004 8.93831 6.97298 8.97923 7.00609 9.01064C7.03062 9.0338 7.21689 9.0362 7.15645 9.05292C7.12942 9.06037 7.02542 9.02584 6.9836 9.04117C6.94182 9.05637 6.93889 9.10925 6.93973 9.12959C6.94067 9.14989 7.08111 9.15692 7.09022 9.15974C7.14245 9.17629 7.20409 9.22239 7.20347 9.22572C7.19693 9.39477 6.94249 9.52378 7.00085 9.69755C7.00525 9.71111 7.15316 9.7178 7.15534 9.72003C7.21182 9.77043 6.8252 9.69511 6.69085 9.71287C6.98956 9.73902 6.93342 9.75182 6.96262 9.78639C6.97693 9.80306 7.09338 9.80643 7.10502 9.809C7.27796 9.84875 7.04969 9.84155 7.00289 9.84104C6.83071 9.83906 7.03049 9.87494 6.91538 9.87389C6.80116 9.87309 6.63591 9.83342 6.6348 9.86395C6.74071 9.88269 7.02222 9.88732 7.06502 9.91435C7.22693 10.0159 6.99205 10.1551 6.96293 10.2228C6.93378 10.2899 6.95156 10.3138 6.90933 10.351C6.83311 10.4184 7.04289 10.4078 7.13409 10.4598C7.22534 10.5118 6.71653 10.4521 6.60622 10.4504C6.49596 10.4488 6.60831 10.4642 6.54733 10.4678C6.48636 10.4714 6.41316 10.4485 6.38898 10.4658C6.36476 10.4833 6.55591 10.5491 6.67022 10.5638C6.91236 10.5949 7.16942 10.5898 7.07591 10.6327C7.0704 10.6351 6.93676 10.6167 6.92236 10.6266C6.81231 10.706 6.79947 10.7957 6.70213 10.877C6.68853 10.8882 6.53973 10.8686 6.53013 10.875C6.42969 10.9423 6.68356 10.9311 6.96116 10.9866C6.58893 10.9565 6.35938 10.9655 6.35378 11.0211C6.35031 11.0544 6.51351 11.0575 6.62698 11.0851C6.6612 11.0933 6.548 11.1109 6.62436 11.1191C6.87391 11.1462 7.15542 11.1389 7.04062 11.1893C7.03516 11.1914 6.89858 11.1766 6.88978 11.1847C6.83236 11.2373 7.09391 11.2569 7.12249 11.3177C7.14489 11.3653 6.98102 11.441 6.95253 11.4933C6.53311 11.4744 6.6268 11.5295 6.91516 11.5615C6.90178 11.5957 6.91649 11.6337 6.87511 11.6656C6.86102 11.6767 6.73987 11.6646 6.72667 11.6655C6.51982 11.6803 6.80067 11.7058 6.81138 11.7137C6.91542 11.7985 6.6996 11.8578 6.90547 11.9418C6.91289 11.9448 7.20422 11.9581 6.99067 11.9723C6.97596 11.9732 6.84418 11.9436 6.83271 11.9797C6.8212 12.0158 6.66276 12.0805 6.79636 12.1349C6.82853 12.148 7.06431 12.185 6.87871 12.2052C6.85347 12.2078 6.76996 12.2021 6.72329 12.2058C6.57462 12.2176 6.86907 12.2333 6.61822 12.2455C6.36738 12.2577 6.17885 12.2918 6.35036 12.3473C6.35533 12.349 6.58862 12.3663 6.58453 12.3823C6.57782 12.408 6.52831 12.4437 6.52929 12.4706C6.52978 12.4836 6.67502 12.4781 6.67765 12.4804C6.75707 12.5685 6.62653 12.6276 6.5688 12.7197C6.55796 12.7366 6.75498 12.7883 6.59805 12.8191C6.42631 12.853 5.71462 12.806 5.88311 12.8923C5.95049 12.9273 6.85351 12.9802 6.38467 13.0353C6.49929 13.1536 6.25867 13.2601 6.42347 13.3789C6.43076 13.3842 6.68285 13.4025 6.67933 13.4148C6.6736 13.4332 6.55569 13.4426 6.54782 13.4557C6.51196 13.5106 6.61253 13.5615 6.59658 13.6146C6.5908 13.6347 6.46893 13.6271 6.46205 13.6512C6.4552 13.6752 6.61565 13.6919 6.538 13.7242C6.47885 13.7486 6.15067 13.7722 6.11236 13.8049C6.43591 13.807 6.4292 13.8295 6.51449 13.8696C6.53107 13.8773 6.64369 13.8693 6.65733 13.873C6.71538 13.8879 6.622 13.9013 6.68516 13.9154C6.70031 13.9189 6.8108 13.9193 6.82947 13.9221C6.99213 13.9461 6.74347 13.9845 6.70018 13.9912C6.53578 14.0166 6.67947 14.0288 6.61471 14.0485C6.54996 14.0681 6.46911 14.0385 6.42978 14.0615C6.34849 14.109 6.36627 14.1703 6.36116 14.2187C6.35978 14.2381 6.50733 14.225 6.51053 14.2277C6.54791 14.2677 6.39098 14.308 6.6848 14.3303C5.92507 14.3577 6.75849 14.3543 6.6064 14.4114C6.59409 14.4159 6.2348 14.4216 6.18209 14.4042C6.12938 14.3869 6.24169 14.3608 6.15947 14.3368C6.14018 14.3311 5.80351 14.2984 5.78316 14.294C5.62378 14.2591 6.16067 14.2545 6.19018 14.2527C6.5084 14.232 6.14573 14.192 6.12071 14.1815C6.00591 14.1335 6.08147 14.093 5.99956 14.0527C5.94662 14.0264 5.59493 14.0233 5.60573 14.0026C5.64147 13.934 6.13213 13.9113 5.70689 13.8456C5.61622 13.8315 5.23178 13.8442 5.53418 13.7953C5.55325 13.7922 5.82987 13.7561 5.65507 13.7342C5.63302 13.7315 5.52102 13.7312 5.5116 13.7276C5.45085 13.7037 5.54013 13.6882 5.49751 13.6621C5.45489 13.6361 5.39129 13.6047 5.42947 13.5753C5.45227 13.5576 5.66111 13.5358 5.71222 13.5276C5.85956 13.5043 5.6184 13.4772 5.79671 13.4633C5.97596 13.4493 6.24782 13.4801 6.36387 13.4416C6.0728 13.4385 5.77414 13.4334 5.48142 13.4293C5.49227 13.3428 5.58707 13.2583 5.57507 13.1713C5.57329 13.1605 5.41671 13.1702 5.41076 13.1586C5.3864 13.1095 5.4984 13.0679 5.45458 13.0168C5.42009 12.9772 5.25498 12.9322 5.21382 12.8904C5.54716 12.8694 5.43498 12.8071 5.46614 12.7632C5.47689 12.7478 5.56582 12.7502 5.59502 12.7396C5.70302 12.6996 5.40845 12.7146 5.36231 12.7025C5.16551 12.6503 5.83165 12.6567 5.81627 12.599C5.81569 12.596 5.46138 12.5525 5.43938 12.5469C5.29587 12.5114 5.56307 12.5436 5.58969 12.5236C5.6384 12.4871 5.72373 12.4629 5.62076 12.4169C5.59022 12.4035 5.36969 12.3681 5.54142 12.3468C5.56391 12.344 5.6812 12.3483 5.68813 12.3458C5.80382 12.3008 5.4352 12.2914 5.31102 12.261C5.18689 12.2307 5.44253 12.1943 5.51613 12.1876C5.70649 12.1698 5.59676 12.2068 5.61533 12.2085C5.83653 12.2281 5.7992 12.1965 5.81858 12.1736C6.18013 12.1792 6.15938 12.1463 5.83725 12.1498C5.80205 12.1503 5.83525 12.1693 5.81858 12.1736C5.46449 12.1442 5.42013 12.1064 5.75271 12.0756C5.90862 12.0612 6.08916 12.0837 6.02467 12.0256C5.99556 11.9992 5.7464 12.002 5.67929 11.9773C5.52614 11.9208 5.76062 11.8604 5.726 11.8059C5.71347 11.786 5.57653 11.8004 5.56329 11.7866C5.52765 11.7501 5.63102 11.7224 5.58009 11.6851C5.57529 11.6817 5.4324 11.6845 5.43102 11.6733C5.41787 11.5886 5.51231 11.519 5.51898 11.4315C5.52209 11.3892 5.44725 11.3098 5.46533 11.2665C5.49582 11.1912 5.70818 11.1081 5.66173 11.0407C5.63205 10.9966 5.48902 10.9982 5.39307 10.9746C5.20707 10.9288 5.54805 10.8851 5.60076 10.8799C5.60249 10.8798 5.63373 10.9182 5.70809 10.9029C5.86116 10.9004 5.60138 10.8804 5.60076 10.8799C5.6348 10.8764 5.67191 10.8054 5.64569 10.7893C5.63138 10.7805 5.49613 10.7767 5.4912 10.7722C5.37716 10.6668 5.35013 10.5652 5.42102 10.4697C5.42387 10.4682 5.57449 10.4814 5.57933 10.4776C5.65089 10.425 5.46947 10.3748 5.364 10.3186C5.25858 10.2625 5.29858 10.2268 5.55978 10.2192C5.5304 10.1806 5.64942 10.1383 5.72156 10.1147C5.79369 10.0911 5.50089 10.0621 5.49533 10.059C5.3176 9.9613 5.49009 9.92824 5.52493 9.84614C5.54196 9.80706 5.508 9.72311 5.48089 9.67616C5.45893 9.63894 5.52987 9.62509 5.48965 9.58871C5.48427 9.58378 5.35347 9.57477 5.34862 9.57296C5.19685 9.52104 5.51338 9.57119 5.57111 9.56976C5.78107 9.56466 5.89307 9.56037 5.80116 9.50496C5.78009 9.49233 5.32538 9.41216 5.30098 9.38968C5.27005 9.36079 5.43316 9.38841 5.39662 9.3578C5.39365 9.35519 5.29227 9.34437 5.29876 9.32862C5.32756 9.25536 5.39716 9.18012 5.39765 9.10079C5.39813 9.08997 5.23573 9.08412 5.23378 9.06808C5.22471 8.99279 5.24205 8.91325 5.32751 8.85224C5.34907 8.8373 5.45965 8.86311 5.49356 8.86374C5.69849 8.86757 5.41058 8.79565 5.40582 8.78934C5.33893 8.70732 5.39471 8.65102 5.4404 8.5925C5.47747 8.54513 5.50791 8.49629 5.46147 8.42896C5.45525 8.42092 5.15169 8.31734 5.42436 8.33418C5.44253 8.33515 5.7212 8.35389 5.53729 8.30311C5.52578 8.29991 5.38182 8.29292 5.40085 8.26871C5.41987 8.24458 5.33316 8.18673 5.49485 8.17557C5.54578 8.17186 5.82409 8.18989 5.6124 8.12007C5.59751 8.11565 5.11471 7.98037 5.45809 8.01843C5.51462 8.02475 5.87356 8.08862 5.69685 8.01704C5.66258 8.00323 5.57973 8.0037 5.53356 7.97469C5.46236 7.93005 5.56658 7.90521 5.41413 7.83864C5.38707 7.82702 5.14902 7.75515 5.33858 7.76471C5.36827 7.76622 5.48676 7.79435 5.50253 7.78458C5.57827 7.73843 5.51036 7.66365 5.60516 7.62062C5.63853 7.60538 5.82978 7.65174 5.88605 7.64008C5.94227 7.62837 6.00098 7.59515 5.91738 7.55624C5.83373 7.51721 5.52053 7.48319 5.50302 7.44471C5.42738 7.27675 5.64013 7.16669 5.7 7.02732C5.70893 7.00656 5.59498 7.00163 5.60031 6.9693C5.6192 6.85043 5.56587 6.62441 5.82387 6.57528C6.03018 6.53666 6.14649 6.66963 6.2376 6.62567C6.28102 6.60475 5.93413 6.4917 5.9248 6.48184C5.82925 6.38534 5.99893 6.37346 5.96729 6.29902C5.96071 6.28365 5.81369 6.2626 5.80973 6.2498C5.7948 6.2058 5.86947 6.18117 5.86742 6.14226C5.86618 6.12471 5.75578 6.10142 5.76831 6.08837C5.79693 6.05687 5.8516 6.03624 5.96369 6.0266C5.97387 6.02576 6.10427 6.08033 6.11649 6.05536C6.13587 6.0149 6.25151 5.98732 6.16076 5.91245C6.13338 5.89014 5.88378 5.82673 6.06502 5.83894C6.10289 5.84146 6.40031 5.92555 6.15147 5.82395C6.11005 5.80732 5.7784 5.65637 6.01205 5.68399C6.07351 5.69123 6.32427 5.73431 6.29076 5.70711C6.28529 5.70319 6.14867 5.67797 6.13978 5.6602C6.11067 5.59831 6.14067 5.54807 6.11413 5.48496C6.1068 5.46799 5.96236 5.45216 5.95587 5.42795C5.93782 5.36142 5.99476 5.29814 6.05489 5.25426C6.07729 5.23805 6.18733 5.28344 6.20022 5.28534C6.40987 5.31662 6.14116 5.22757 6.12769 5.21515C6.04765 5.1389 6.18756 5.13633 6.16782 5.08138C6.16276 5.0661 6.02996 5.03881 6.01916 5.03304C5.91413 4.97494 6.14147 5.05991 6.17236 5.05048C6.25978 5.02429 6.26542 4.97022 6.26373 4.91881C6.26293 4.8997 6.10631 4.87616 6.10738 4.85944C6.11076 4.76008 6.15622 4.66858 6.26831 4.60424C6.28969 4.59224 6.40169 4.63709 6.4292 4.64142C6.62147 4.67275 6.38178 4.56214 6.36053 4.54677C6.26356 4.47696 6.37036 4.4933 6.36227 4.45519C6.32133 4.26694 6.45773 4.09056 6.55333 3.95468C6.67756 3.7765 6.84231 3.66333 6.88649 3.46838C6.88947 3.45608 6.73382 3.41498 6.73453 3.40349C6.74471 3.30894 6.7952 3.22965 6.83231 3.14616C6.85293 3.09958 6.86916 3.05298 6.87347 3.0005C6.8748 2.98822 6.72622 2.95096 6.72365 2.92937C6.71747 2.88446 6.74413 2.84255 6.80525 2.82255C6.83471 2.8129 6.94578 2.88356 6.97293 2.87303C7.03636 2.84862 7.06511 2.80935 7.06151 2.75713C7.0596 2.735 6.90338 2.70578 6.91218 2.68132C6.96898 2.51397 7.01925 2.34087 7.2824 2.25715C7.30058 2.25119 7.59333 2.3674 7.54956 2.31985C7.47062 2.28292 7.37667 2.24164 7.29174 2.20325C7.36196 1.94637 7.58547 1.75719 7.73605 1.53266C7.7424 1.52309 7.58529 1.46315 7.59698 1.44406C7.66427 1.33401 7.6908 1.20253 7.904 1.17397C7.92485 1.17118 8.17458 1.32125 8.15631 1.26805C8.15289 1.25847 8.14938 1.19228 8.10285 1.14803C8.09569 1.14154 7.97253 1.08158 7.97911 1.06423C8.01942 0.964639 8.10782 0.888824 8.23591 0.84877C8.2568 0.842475 8.37018 0.932706 8.38605 0.928955C8.49769 0.901978 8.45436 0.772176 8.60849 0.780888C8.71205 0.787157 8.91285 0.93573 9.13609 1.04561C9.1676 1.0611 9.18973 1.03916 9.31173 1.11435C9.61849 1.30333 9.94342 1.52585 10.2714 1.72586C10.342 1.76899 10.2901 1.68827 10.4452 1.81459C10.4555 1.82311 10.4947 1.88249 10.5479 1.92452C10.5846 1.95362 10.7129 2.024 10.7578 2.06434C10.8026 2.10463 10.693 2.04859 10.743 2.09983C10.7938 2.15147 10.9381 2.23392 10.9359 2.27119ZM6.04422 10.0093C6.18765 9.9949 5.67258 9.94471 5.79298 9.98525C5.79942 9.98723 6.0372 10.0101 6.04422 10.0093ZM5.97765 13.2618C6.20631 13.2288 5.87076 13.2022 5.69413 13.2254C5.51773 13.2487 5.90831 13.2719 5.97765 13.2618ZM6.142 13.6236C6.32227 13.5838 5.58809 13.5741 5.73627 13.6184C5.74467 13.621 6.13151 13.6259 6.142 13.6236ZM9.12542 1.18267C9.13138 1.18595 9.14965 1.17138 9.14427 1.16739C9.014 1.07159 8.97751 1.10096 9.12542 1.18267ZM6.32236 13.9813C6.42169 13.9688 6.30716 13.9322 6.1836 13.9477C6.08422 13.9601 6.1988 13.9968 6.32236 13.9813ZM6.77471 8.68243C6.7824 8.68315 6.79178 8.66896 6.74867 8.66281C6.60973 8.64306 6.64538 8.67026 6.77471 8.68243ZM6.3304 14.5874C6.35805 14.4978 6.96453 14.4437 6.89609 14.5411C6.88373 14.5587 6.70271 14.5031 6.648 14.5255C6.5484 14.5666 6.9292 14.5939 6.72516 14.6359C6.68778 14.6435 6.32747 14.5925 6.32956 14.5872C6.32982 14.5873 6.33013 14.5873 6.3304 14.5874ZM6.66493 10.049C6.67182 10.049 6.6804 10.0285 6.67369 10.0274C6.5112 10.0011 6.49378 10.0428 6.66493 10.049ZM7.25507 7.85624C7.2696 7.85776 7.29307 7.81241 7.28022 7.80837C7.02196 7.73309 6.97356 7.82572 7.25507 7.85624ZM6.94133 11.4936C7.10542 11.5235 7.12342 11.5515 6.91516 11.5615C6.9272 11.5391 6.93009 11.5161 6.94133 11.4936Z" fill="var(--fill-0, #C0BD6D)"/>
</g>
</svg>
