<svg xmlns="http://www.w3.org/2000/svg" fill="none" overflow="visible" preserveAspectRatio="none" style="display:block" viewBox="0 0 27 38"><g id="opening quotation mark" fill="var(--fill-0, #c0bd6d)"><path id="Vector" d="M12.9956 6.05299C13.0941 6.22324 12.9775 6.44007 12.8203 6.59049C12.7715 6.63831 12.5666 6.60172 12.5236 6.63365C12.4397 6.696 12.5371 6.76221 12.4373 6.82112C12.4033 6.84033 12.0787 6.79186 12.0505 6.81216C11.8981 6.92213 11.9724 7.04053 11.8928 7.15276C11.4998 7.70519 11.3064 8.22031 11.0746 8.7349C10.998 8.90645 10.6702 9.06742 10.7668 9.26758C10.7784 9.29122 11.0633 9.32829 11.0859 9.33638C11.4315 9.46233 10.8644 9.34144 10.7814 9.36816C10.4537 9.47494 10.3955 9.6452 10.4752 9.81992C10.51 9.89365 11.0825 9.93514 10.7557 9.94053C10.7336 9.94099 10.4373 9.86755 10.402 9.8791C10.3225 9.9053 10.3613 9.99188 10.3315 10.0187C10.2725 10.0702 10.2737 10.0804 10.2593 10.1358C10.237 10.2109 10.0697 10.2751 10.1211 10.3701C10.1329 10.3907 10.4439 10.429 10.4904 10.4676C10.5368 10.5061 10.4957 10.5757 10.4184 10.5863C10.341 10.5969 10.1025 10.5371 10.0464 10.5303C9.57333 10.4723 10.2007 10.6892 10.2143 10.7036C10.4442 10.9618 10.041 11.0572 10.0018 11.2452C9.97317 11.387 10.0609 11.5667 10.0148 11.6977C9.958 11.8568 9.76342 11.9523 9.7566 12.1164C9.75561 12.1332 10.1185 12.1943 10.118 12.2151C10.1121 12.4372 10.0251 12.6402 9.73457 12.7981C9.70521 12.8134 9.3969 12.7145 9.34877 12.7256C9.06113 12.7943 8.39299 12.8576 9.74407 13.249C9.67053 13.3236 9.59012 13.4194 9.29632 13.4327C9.1072 13.4414 8.77625 13.3131 8.90798 13.4085C8.93728 13.43 9.24123 13.4818 9.26249 13.5088C9.35181 13.6219 9.23142 13.6974 9.36592 13.8203C9.394 13.8454 9.66361 13.9036 9.71079 13.9199C10.0925 14.0537 9.42877 13.972 9.37814 13.9763C9.16007 13.9961 9.1069 14.0439 9.0943 14.1017L9.10839 14.0343C9.10175 14.0747 9.11726 14.1195 9.10547 14.1638C9.09886 14.1882 9.46867 14.2247 9.47542 14.2503C9.50539 14.3836 9.45206 14.5029 9.26908 14.5964C9.22755 14.6168 8.92088 14.5384 8.88511 14.5455C8.73116 14.5775 9.31636 14.6911 9.1801 14.724C9.15212 14.7311 8.88696 14.6792 8.85735 14.6763C8.3926 14.6313 9.03816 14.7712 9.05115 14.7817C9.2295 14.9206 8.53841 14.8767 8.61733 14.9969C8.62748 15.0113 8.96929 15.0393 8.9772 15.0763C9.03164 15.3251 8.89945 15.5552 8.59253 15.7457C8.54525 15.7755 8.29575 15.7094 8.26413 15.7067C7.76978 15.6666 8.42053 15.7939 8.44333 15.8095C8.60622 15.9299 8.04339 15.9324 8.81344 16.1167C8.48142 16.4688 8.85994 16.9286 8.10174 17.2167C8.09289 17.2205 7.7715 17.1632 7.75524 17.1709C7.55599 17.2641 8.06105 17.3162 8.66264 17.4875C8.8137 17.5305 8.06391 17.4807 8.0088 17.478C7.80579 17.4678 7.32864 17.3757 7.28891 17.3765C6.97649 17.3857 8.56587 17.6137 8.55543 17.6872C8.55244 17.6891 8.26157 17.6359 8.23159 17.6377C8.13749 17.6433 8.25081 17.6797 8.14739 17.6834C7.90815 17.6918 7.13419 17.5921 7.57355 17.7246C7.63061 17.7416 8.53336 17.8629 8.48105 17.9222C8.45943 17.9457 8.45764 18.0639 8.39445 18.0877C8.33132 18.1115 8.04431 18.0461 8.0314 18.0465C7.63453 18.077 7.48034 18.0202 6.90548 17.9797C6.33276 17.9395 7.68504 18.1277 7.83312 18.168C7.98077 18.2082 7.65451 18.2253 7.54206 18.2248C7.42956 18.2242 7.248 18.1772 7.18358 18.1819C6.76252 18.2144 7.84786 18.3222 8.05767 18.3846C8.55448 18.532 7.54462 18.4397 7.43668 18.4912C7.40752 18.5051 7.63779 18.5244 7.65676 18.5435C7.72886 18.6187 7.41073 18.6102 7.6866 18.7245C7.73154 18.7432 8.32504 18.8907 7.87758 18.8626C7.81307 18.8584 7.56576 18.8062 7.50585 18.8248C7.41598 18.8525 7.35066 18.9168 7.42765 18.9724C7.48461 19.0134 7.90126 19.0382 7.76755 19.0593C7.70785 19.0686 7.47222 18.9997 7.38014 19.0202C7.28813 19.0404 7.28596 19.1274 7.28942 19.161C7.29307 19.1947 7.60762 19.2236 7.62824 19.2293C7.74624 19.2632 7.88733 19.3478 7.88614 19.3533C7.88266 19.6366 7.31856 19.8126 7.45127 20.1092C7.46123 20.1324 7.79213 20.1685 7.79704 20.1726C7.92368 20.2662 7.05838 20.0755 6.75812 20.0812C7.42632 20.176 7.30097 20.1873 7.36631 20.2495C7.39831 20.2797 7.65866 20.3059 7.68475 20.3122C8.0714 20.4092 7.56078 20.3569 7.45612 20.3475C7.07112 20.313 7.51755 20.4087 7.26017 20.3859C7.00471 20.3633 6.63556 20.2677 6.63284 20.3172C6.86946 20.3678 7.49897 20.4278 7.59434 20.4807C7.95513 20.6804 7.42456 20.8673 7.35578 20.9723C7.28719 21.0768 7.32535 21.1203 7.22858 21.1725C7.05367 21.2663 7.52311 21.297 7.72286 21.4049C7.92249 21.5133 6.79068 21.2931 6.54441 21.264C6.29828 21.2348 6.54806 21.287 6.41159 21.2781C6.27516 21.2692 6.11341 21.2143 6.05806 21.2364C6.00277 21.2583 6.42411 21.4116 6.67797 21.4643C7.21581 21.5758 7.79034 21.6318 7.57741 21.6794C7.56479 21.682 7.26827 21.6178 7.23513 21.6305C6.98151 21.7348 6.94298 21.8774 6.71558 21.9836C6.68388 21.9979 6.35449 21.9241 6.33229 21.9317C6.10004 22.0106 6.66731 22.0655 7.27839 22.2376C6.45285 22.08 5.94011 22.0284 5.92004 22.1145C5.90767 22.1663 6.27076 22.2205 6.51951 22.2994C6.59446 22.3235 6.33961 22.3175 6.50836 22.3544C7.05989 22.4754 7.68815 22.5499 7.42402 22.5987C7.41153 22.6007 7.1098 22.5335 7.0889 22.5442C7.01455 22.5815 7.15218 22.6323 7.30153 22.6889C7.42647 22.7368 7.5596 22.7889 7.5834 22.84C7.62444 22.9276 7.24507 22.9996 7.17103 23.0758C6.24301 22.899 6.44063 23.0179 7.07366 23.1753C7.03649 23.2275 7.06077 23.2957 6.96181 23.3325C6.92804 23.3452 6.66203 23.2803 6.63256 23.277C6.17059 23.2235 6.78745 23.3708 6.80938 23.3879C7.01999 23.5675 6.52737 23.5799 6.96122 23.7995C6.97689 23.8071 7.6178 23.9485 7.14155 23.8851C7.10877 23.8804 6.82525 23.7775 6.79016 23.8325C6.75492 23.8881 6.38764 23.9242 6.66695 24.0709C6.73424 24.1061 7.24377 24.2701 6.82825 24.2216C6.77185 24.2149 6.58934 24.1685 6.48533 24.1539C6.15392 24.1071 6.79851 24.2641 6.24186 24.1714C5.68513 24.0792 5.26085 24.0431 5.62149 24.2104C5.63194 24.2154 6.14016 24.3515 6.12617 24.3753C6.10344 24.4132 5.98343 24.446 5.97671 24.4898C5.97371 24.5106 6.29463 24.5719 6.29962 24.5769C6.44532 24.7567 6.13843 24.7885 5.97951 24.9053C5.94987 24.9261 6.36242 25.1117 6.00775 25.0785C5.6198 25.0409 4.08118 24.5889 4.41928 24.8076C4.55463 24.8944 6.50455 25.4753 5.46057 25.3021C5.66405 25.5527 5.09855 25.5752 5.40538 25.8579C5.41901 25.8702 5.95693 26.0531 5.94379 26.0708C5.92329 26.0965 5.66394 26.0386 5.64123 26.0541C5.53965 26.1173 5.73411 26.26 5.67521 26.3335C5.65346 26.3614 5.39413 26.2715 5.36827 26.3042C5.34277 26.3364 5.68055 26.467 5.49826 26.4667C5.35939 26.4662 4.64236 26.2867 4.54494 26.3103C5.23977 26.5279 5.2149 26.5576 5.37899 26.6768C5.41084 26.6998 5.65667 26.7628 5.6842 26.7776C5.80157 26.8399 5.59451 26.7982 5.72324 26.8627C5.75413 26.8783 5.99117 26.9534 6.0298 26.9704C6.36724 27.1179 5.81435 27.0109 5.71835 26.9914C5.35325 26.919 5.65544 27.0358 5.50684 27.0222C5.35839 27.0082 5.1997 26.907 5.10417 26.9154C4.90667 26.9325 4.91448 27.0385 4.87936 27.1091C4.86679 27.1378 5.18885 27.2208 5.19437 27.2273C5.25416 27.3153 4.89847 27.2667 5.51503 27.508C3.87764 27.0149 5.66028 27.597 5.3061 27.578C5.27752 27.5762 4.50733 27.3305 4.40342 27.2668C4.29961 27.2031 4.55274 27.2425 4.38913 27.148C4.3508 27.1256 3.6476 26.8392 3.60616 26.8183C3.28258 26.6544 4.43279 27.0236 4.49678 27.0414C5.18765 27.2326 4.43197 26.9178 4.38338 26.8849C4.16131 26.7324 4.34271 26.7236 4.18655 26.6067C4.08578 26.5307 3.33329 26.2858 3.36598 26.2631C3.47396 26.188 4.53842 26.4829 3.65492 26.1013C3.46638 26.0202 2.63431 25.7835 3.30598 25.9136C3.34822 25.9221 3.95954 26.0511 3.59281 25.9047C3.54656 25.8863 3.30553 25.8125 3.28684 25.8013C3.16623 25.7274 3.36528 25.763 3.28448 25.698C3.20358 25.6333 3.07947 25.5482 3.17396 25.5304C3.23038 25.5201 3.69031 25.6209 3.80427 25.6409C4.13233 25.6994 3.62233 25.5087 4.01352 25.5998C4.40701 25.6903 4.98187 25.9057 5.24934 25.9186C4.62105 25.734 3.97691 25.5419 3.34528 25.3555C3.40303 25.2389 3.64096 25.1754 3.64745 25.0423C3.64756 25.0259 3.30375 24.9485 3.29506 24.9286C3.25978 24.8456 3.51852 24.85 3.441 24.7524C3.37991 24.6757 3.03487 24.5219 2.95874 24.4411C3.69364 24.5922 3.46919 24.4431 3.55154 24.396C3.58007 24.3795 3.7738 24.4298 3.8411 24.4297C4.09032 24.4281 3.44064 24.2967 3.34349 24.2555C2.92863 24.0803 4.38595 24.4307 4.37058 24.3367C4.37033 24.3316 3.60657 24.0906 3.55986 24.0719C3.25553 23.9495 3.83229 24.1283 3.89672 24.1125C4.01437 24.0839 4.20918 24.089 3.99625 23.9714C3.93313 23.9368 3.45785 23.7818 3.84154 23.8317C3.89179 23.8381 4.14864 23.8995 4.1646 23.8991C4.43198 23.886 3.62323 23.7002 3.35764 23.6004C3.09208 23.5007 3.66458 23.5648 3.82865 23.5874C4.25298 23.6463 4.00128 23.652 4.04181 23.6628C4.52407 23.7918 4.45033 23.7277 4.49923 23.7015C5.295 23.871 5.25811 23.8111 4.54656 23.6743C4.46882 23.6594 4.53709 23.7024 4.49923 23.7015C3.72629 23.4997 3.63723 23.4284 4.37923 23.526C4.72696 23.5719 5.12014 23.6828 4.99237 23.5669C4.93469 23.5144 4.38351 23.4132 4.24114 23.3482C3.91633 23.1997 4.4483 23.2078 4.38403 23.1106C4.36064 23.0756 4.05439 23.0429 4.02802 23.0169C3.95708 22.9481 4.19159 22.9488 4.08648 22.8731C4.07657 22.8662 3.75944 22.8152 3.75863 22.7982C3.7464 22.6683 3.96895 22.6005 3.99886 22.4732C4.01321 22.4116 3.86012 22.2667 3.90678 22.2095C3.93549 22.1729 4.01726 22.1422 4.10554 22.1117C4.26083 22.06 4.43639 22.0088 4.37621 21.9333C4.3159 21.8572 3.99715 21.816 3.78639 21.7513C3.37767 21.6271 4.14208 21.664 4.26024 21.6708C4.26415 21.671 4.3292 21.7392 4.4967 21.7377C4.83809 21.7788 4.26161 21.6716 4.26024 21.6708C4.33665 21.6749 4.42708 21.5785 4.37031 21.5461C4.33926 21.5286 4.03824 21.4843 4.02771 21.4762C3.7844 21.2829 3.73226 21.1253 3.8971 20.9989C3.9036 20.9972 4.23873 21.0562 4.24981 21.0517C4.41328 20.9896 4.01171 20.8656 3.77919 20.7553C3.54682 20.6449 3.63755 20.6015 4.22119 20.6509C4.15735 20.5843 4.42462 20.5479 4.58655 20.5271C4.74845 20.5065 4.09521 20.3969 4.0829 20.3909C3.68849 20.2015 4.07387 20.1908 4.15227 20.0706C4.19066 20.0137 4.11433 19.8786 4.05297 19.801C4.00337 19.7396 4.16163 19.7317 4.07089 19.6685C4.05878 19.66 3.76626 19.622 3.75534 19.6183C3.41477 19.5113 4.12349 19.646 4.25247 19.6544C4.72149 19.6847 4.97186 19.6972 4.76468 19.5945C4.71727 19.5708 3.69805 19.3684 3.64241 19.3304C3.57197 19.2812 3.93769 19.3512 3.85457 19.2982C3.84779 19.2937 3.62073 19.26 3.63443 19.2371C3.69508 19.1302 3.84575 19.0267 3.84077 18.9048C3.84096 18.8883 3.47779 18.855 3.47213 18.8303C3.44587 18.7144 3.4771 18.5967 3.66164 18.5146C3.70819 18.4947 3.95787 18.5488 4.03359 18.5542C4.49181 18.5867 3.84104 18.4388 3.82972 18.4287C3.54262 18.1855 4.16061 18.1238 3.90678 17.881C3.89175 17.8676 3.19856 17.6788 3.80934 17.731C3.84999 17.7345 4.47469 17.7892 4.05621 17.6935C4.03003 17.6875 3.70783 17.6634 3.74631 17.6278C3.78473 17.5921 3.58153 17.4954 3.94002 17.4918C4.05297 17.4905 4.67679 17.5406 4.19225 17.4149C4.15838 17.4064 3.0572 17.1597 3.82961 17.2448C3.95674 17.2589 4.76881 17.3847 4.36142 17.2599C4.28241 17.2359 4.09787 17.2307 3.98937 17.1822C3.8221 17.1078 4.04935 17.076 3.69621 16.9622C3.63366 16.9423 3.08863 16.8156 3.51264 16.8425C3.57905 16.8467 3.8488 16.8977 3.88197 16.8835C4.04093 16.8161 3.8735 16.695 4.07484 16.6323C4.14562 16.61 4.58175 16.6922 4.7043 16.6764C4.82681 16.6606 4.94997 16.6101 4.75486 16.5447C4.55966 16.4793 3.85492 16.4126 3.80694 16.3513C3.59855 16.0857 4.04329 15.9189 4.13863 15.6981C4.15283 15.6654 3.8985 15.6551 3.90149 15.6042C3.91157 15.4148 3.72771 15.0557 4.28455 14.9766C4.73035 14.9143 5.02799 15.1291 5.21673 15.0578C5.30681 15.0235 4.50362 14.8422 4.47995 14.8265C4.23884 14.6704 4.6109 14.6502 4.51733 14.5302C4.49794 14.5052 4.16582 14.4723 4.15295 14.4516C4.10612 14.3801 4.2635 14.3393 4.24641 14.2762C4.23798 14.2478 3.98623 14.2109 4.00963 14.1899C4.06291 14.138 4.17711 14.1035 4.42181 14.0862C4.4441 14.0846 4.75029 14.172 4.76914 14.131C4.79868 14.0649 5.04539 14.017 4.81982 13.8956C4.75191 13.8594 4.17915 13.7595 4.58369 13.7765C4.66821 13.7799 5.35358 13.9135 4.76972 13.7501C4.67266 13.723 3.8892 13.4799 4.41454 13.521C4.5528 13.5318 5.1212 13.5983 5.03787 13.5541C5.02448 13.5476 4.71419 13.5088 4.68852 13.4792C4.60874 13.3817 4.64694 13.3021 4.58557 13.2064C4.60167 13.1779 4.60155 13.074 4.61907 13.0464C4.61531 13.0402 4.61112 13.0339 4.60645 13.0275C4.58556 12.9995 4.26339 12.9578 4.24228 12.9186C4.18379 12.8107 4.28973 12.7197 4.40817 12.6576C4.45244 12.6348 4.70798 12.7176 4.73688 12.722C5.20678 12.7936 4.58947 12.6246 4.55602 12.6039C4.35669 12.4757 4.66287 12.4856 4.60183 12.3973C4.58576 12.3732 4.28556 12.3177 4.25998 12.3077C4.01051 12.2076 4.53697 12.3615 4.60164 12.3499C4.78442 12.3187 4.77958 12.2312 4.75819 12.1508C4.74993 12.121 4.39857 12.071 4.39513 12.0452C4.36778 11.8932 4.43495 11.7522 4.6558 11.6609C4.69803 11.6437 4.9598 11.7204 5.02164 11.729C5.45406 11.7898 4.88822 11.6018 4.83588 11.5771C4.59717 11.4628 4.83694 11.4943 4.80443 11.4345C4.64147 11.1416 4.86428 10.876 5.01046 10.6695C5.19937 10.4001 5.50281 10.2211 5.49573 9.92664C5.49567 9.90772 5.1373 9.85187 5.13267 9.83469C5.08877 9.61773 5.26679 9.45334 5.20326 9.23586C5.19866 9.21822 4.85724 9.17459 4.8385 9.14421C4.79775 9.08108 4.82861 9.02068 4.94678 8.98732C5.00369 8.97133 5.28616 9.06247 5.33756 9.0451C5.45793 9.00465 5.49442 8.94417 5.45206 8.872C5.43338 8.84069 5.08068 8.81572 5.08324 8.78035C5.09306 8.54052 5.07377 8.30663 5.56099 8.15237C5.59445 8.14175 6.30079 8.24556 6.17152 8.18855C5.97654 8.15347 5.74665 8.11541 5.53798 8.07959C5.48032 7.73069 5.77246 7.44781 5.8491 7.13516C5.85222 7.12217 5.47405 7.09912 5.47813 7.07413C5.50136 6.92795 5.41167 6.7826 5.79921 6.67296C5.83712 6.66193 6.4991 6.72946 6.40279 6.67623C6.38523 6.66675 6.30241 6.5934 6.15976 6.56493C6.13822 6.56098 5.82776 6.54747 5.82037 6.5264C5.78273 6.40536 5.86116 6.29171 6.05612 6.18636C6.08817 6.1694 6.41759 6.2047 6.44329 6.19243C6.62327 6.10171 6.37523 5.99095 6.67684 5.90645C6.87989 5.84757 7.45116 5.87759 8.0142 5.846C8.09366 5.84134 8.10647 5.79795 8.43384 5.79643C9.25712 5.79201 10.1585 5.81988 11.036 5.81284C11.2251 5.81121 11.0216 5.73438 11.4783 5.7802C11.5089 5.78331 11.6603 5.8406 11.8151 5.85617C11.9222 5.86699 12.2553 5.85076 12.3922 5.87282C12.5291 5.89528 12.2498 5.91572 12.4104 5.95269C12.573 5.99012 12.9521 5.98023 12.9956 6.05299ZM5.31047 20.4322C5.63129 20.4394 4.48124 20.2533 4.74956 20.3415C4.7639 20.346 5.29472 20.4319 5.31047 20.4322ZM4.48696 25.4118C4.99649 25.4977 4.27823 25.2602 3.88575 25.1905C3.49398 25.1198 4.33263 25.3853 4.48696 25.4118ZM4.69059 26.0564C5.09725 26.1108 3.51689 25.6295 3.81784 25.7886C3.83482 25.7977 4.66699 26.0532 4.69059 26.0564ZM8.17152 6.02351C8.18701 6.02335 8.20283 5.9917 8.18751 5.99062C7.81797 5.96617 7.78667 6.02714 8.17152 6.02351ZM4.91287 26.7191C5.13201 26.7675 4.90385 26.6335 4.6313 26.5737C4.41214 26.5253 4.64039 26.6587 4.91287 26.7191ZM6.87392 18.4095C6.89119 18.4113 6.91031 18.389 6.81317 18.3751C6.50028 18.3304 6.58343 18.3777 6.87392 18.4095ZM4.62682 27.6528C4.73154 27.5352 6.05439 27.8818 5.85815 27.9838C5.82266 28.0022 5.4648 27.7877 5.33653 27.7835C5.10281 27.7759 5.90168 28.0888 5.44457 28.0082C5.36095 27.9933 4.61798 27.6585 4.6251 27.652C4.62567 27.6522 4.62625 27.6525 4.62682 27.6528ZM6.69674 20.6243C6.71209 20.6258 6.73184 20.5941 6.71688 20.5909C6.35433 20.5154 6.31436 20.5792 6.69674 20.6243ZM7.80036 17.0785C7.83309 17.0816 7.87537 17.0069 7.84584 16.9999C7.254 16.8685 7.16673 17.0193 7.80036 17.0785ZM7.14602 23.0725C7.50449 23.1793 7.53841 23.2326 7.07366 23.1753C7.10536 23.1417 7.1164 23.1058 7.14602 23.0725Z"/><path id="Vector_2" d="M24.6064 5.39461C24.5926 5.59877 24.3803 5.72384 24.1663 5.78069C24.0997 5.79876 23.9403 5.66496 23.8864 5.67261C23.781 5.68806 23.8319 5.79651 23.7148 5.8027C23.675 5.80433 23.4138 5.60561 23.3783 5.61155C23.1862 5.64499 23.1916 5.79427 23.0648 5.86902C22.4372 6.24047 22.0251 6.7427 21.5972 7.28753C21.4571 7.46529 21.0716 7.59122 21.0938 7.86022C21.0967 7.8915 21.3656 7.9935 21.3851 8.00787C21.6832 8.22888 21.1645 7.96896 21.0722 7.98738C20.7089 8.05756 20.5877 8.27387 20.6113 8.50606C20.6215 8.60657 21.1824 8.74234 20.8526 8.70251C20.8302 8.70006 20.5571 8.56276 20.5176 8.57314C20.4292 8.59577 20.4402 8.71299 20.4015 8.74414C20.3254 8.80392 20.3236 8.81673 20.2913 8.888C20.2446 8.98482 20.0566 9.04828 20.0789 9.18132C20.0845 9.21009 20.3876 9.29296 20.4229 9.34887C20.4371 9.37141 20.4355 9.39911 20.423 9.42473C20.4051 9.46141 20.3637 9.49354 20.3152 9.49718C20.2339 9.5033 20.0098 9.40167 19.9551 9.38732C19.4929 9.26532 20.064 9.61541 20.0744 9.63391C20.235 9.99396 19.7991 10.0935 19.7103 10.3445C19.6431 10.5366 19.6879 10.7828 19.6094 10.9583C19.5139 11.1699 19.2909 11.3008 19.2481 11.5221C19.2432 11.5454 19.6007 11.6348 19.5955 11.6634C19.5396 11.968 19.4095 12.2411 19.0808 12.4599C19.0476 12.4814 18.7516 12.3473 18.7 12.3632C18.391 12.4617 17.6924 12.5676 19.0043 13.082C18.9145 13.1891 18.8168 13.318 18.5127 13.3482C18.3169 13.3675 18.0002 13.199 18.1182 13.329C18.1445 13.358 18.4473 13.4195 18.4644 13.4563C18.5364 13.6108 18.4007 13.7192 18.5185 13.8854C18.5431 13.9193 18.8102 13.9886 18.8559 14.0092C19.2258 14.1784 18.5586 14.094 18.5059 14.1027C18.1125 14.1698 18.2157 14.3272 18.1647 14.4789C18.1527 14.514 18.5215 14.5703 18.5228 14.6075C18.5255 14.7977 18.4451 14.9729 18.2403 15.1037C18.1938 15.1327 17.8983 15.0162 17.8605 15.0259C17.6973 15.0705 18.2688 15.2408 18.1237 15.2863C18.0938 15.2961 17.835 15.2183 17.8055 15.2138C17.3425 15.1434 17.9701 15.3517 17.9811 15.3672C18.1341 15.5698 17.4416 15.4971 17.498 15.6713C17.5055 15.6921 17.8469 15.736 17.8477 15.7893C17.8549 16.1452 17.678 16.4743 17.3339 16.7436C17.2808 16.7857 17.0395 16.6901 17.0079 16.6861C16.5139 16.6267 17.151 16.8125 17.1714 16.8349C17.3155 17.0078 16.7451 17.0093 17.4943 17.2746C17.0992 17.7787 17.415 18.4265 16.6114 18.8516C16.6019 18.8573 16.2842 18.7817 16.2667 18.7932C16.0531 18.9318 16.5574 18.9956 17.1451 19.225C17.2927 19.2823 16.5404 19.2299 16.4849 19.2278C16.2808 19.2187 15.8092 19.0996 15.7689 19.1019C15.4516 19.1247 17.0322 19.4071 17.0135 19.5112C17.0102 19.514 16.7222 19.4465 16.6916 19.4499C16.5958 19.4606 16.7063 19.509 16.6014 19.5175C16.3586 19.5363 15.5868 19.4198 16.0165 19.5956C16.0724 19.6179 16.972 19.761 16.913 19.8467C16.8886 19.8808 16.8751 20.0483 16.809 20.0845C16.7429 20.1207 16.4591 20.0391 16.4461 20.0402C16.042 20.1001 15.8916 20.0253 15.3143 19.9929C14.739 19.9617 16.0882 20.1714 16.2341 20.2224C16.3796 20.2732 16.0484 20.3126 15.9348 20.3175C15.8212 20.3222 15.6419 20.2632 15.5763 20.2733C15.1477 20.3422 16.2353 20.4424 16.442 20.5213C16.9316 20.7064 15.9192 20.6257 15.806 20.707C15.7754 20.7288 16.0066 20.7434 16.0243 20.7697C16.0821 20.859 15.8522 20.8763 15.9602 20.9738C15.9776 20.9895 16.0038 21.0072 16.0413 21.0276C16.0853 21.052 16.6749 21.225 16.2251 21.2131C16.1602 21.2114 15.9139 21.1525 15.8522 21.1832C15.7597 21.229 15.6899 21.3262 15.7644 21.4008C15.8196 21.4558 16.2387 21.4615 16.1027 21.5012C16.0419 21.5189 15.8079 21.4369 15.7138 21.4733C15.6198 21.5094 15.6132 21.635 15.6151 21.6833C15.6172 21.7315 15.9332 21.7482 15.9537 21.7549C16.0712 21.7942 16.2099 21.9037 16.2085 21.9116C16.1938 22.3131 15.6213 22.6195 15.7526 23.0322C15.7625 23.0644 16.0953 23.0803 16.1002 23.0856C16.2273 23.2053 15.3574 23.0264 15.0551 23.0686C15.7272 23.1307 15.6009 23.1611 15.6666 23.2432C15.6988 23.2828 15.9608 23.2908 15.987 23.2969C16.3761 23.3913 15.8625 23.3742 15.7572 23.373C15.3698 23.3683 15.8193 23.4535 15.5603 23.451C15.3033 23.4491 14.9315 23.3549 14.929 23.4274C15.1673 23.4719 15.8007 23.4829 15.897 23.5471C16.2613 23.7882 15.7328 24.1188 15.6673 24.2797C15.6017 24.439 15.6417 24.4959 15.5467 24.5842C15.3752 24.7442 15.8472 24.7191 16.0524 24.8426C16.2577 24.9661 15.1129 24.8242 14.8647 24.8203C14.6166 24.8164 14.8694 24.853 14.7322 24.8616C14.595 24.8702 14.4303 24.8157 14.3759 24.8569C14.3214 24.8984 14.7515 25.0547 15.0087 25.0895C15.5535 25.1634 16.1319 25.1514 15.9215 25.2531C15.9091 25.259 15.6084 25.2151 15.576 25.2387C15.3284 25.4272 15.2995 25.6403 15.0805 25.8335C15.0499 25.8601 14.7151 25.8134 14.6935 25.8287C14.4675 25.9884 15.0387 25.962 15.6633 26.0938C14.8258 26.0221 14.3093 26.0435 14.2967 26.1756C14.2889 26.2547 14.6561 26.2621 14.9114 26.3276C14.9884 26.3472 14.7337 26.3889 14.9055 26.4085C15.467 26.4728 16.1004 26.4554 15.8421 26.575C15.8298 26.5802 15.5225 26.545 15.5027 26.5643C15.3735 26.6892 15.962 26.7357 16.0263 26.88C16.0767 26.993 15.708 27.1728 15.6439 27.297C14.7002 27.2522 14.911 27.3831 15.5598 27.4591C15.5297 27.5402 15.5628 27.6305 15.4697 27.7064C15.438 27.7326 15.1654 27.7039 15.1357 27.7061C14.6703 27.7412 15.3022 27.8019 15.3263 27.8205C15.5604 28.022 15.0748 28.1628 15.538 28.3623C15.5547 28.3695 16.2102 28.4011 15.7297 28.4347C15.6966 28.4369 15.4001 28.3666 15.3743 28.4524C15.3484 28.5381 14.9919 28.6917 15.2925 28.8208C15.3649 28.8521 15.8954 28.9398 15.4778 28.9878C15.421 28.9941 15.2331 28.9806 15.1281 28.9892C14.7936 29.0174 15.4561 29.0546 14.8917 29.0835C14.3273 29.1125 13.9031 29.1936 14.289 29.3253C14.3002 29.3295 14.8251 29.3705 14.8159 29.4086C14.8008 29.4696 14.6894 29.5542 14.6916 29.6183C14.6927 29.649 15.0195 29.6361 15.0254 29.6415C15.2041 29.8506 14.9104 29.9911 14.7805 30.2098C14.7561 30.25 15.1994 30.3728 14.8463 30.4458C14.4599 30.5263 12.8586 30.4147 13.2377 30.6197C13.3893 30.7028 15.4211 30.8284 14.3662 30.9594C14.6241 31.2403 14.0827 31.4932 14.4535 31.7753C14.4699 31.7879 15.0371 31.8314 15.0292 31.8607C15.0163 31.9043 14.751 31.9266 14.7333 31.9578C14.6526 32.0883 14.8789 32.2092 14.843 32.3351C14.83 32.383 14.5558 32.365 14.5403 32.4221C14.5249 32.4792 14.8859 32.5188 14.7112 32.5955C14.5781 32.6534 13.8397 32.7094 13.7535 32.7871C14.4815 32.7922 14.4664 32.8455 14.6583 32.9408C14.6956 32.9591 14.949 32.9402 14.9797 32.9489C15.1103 32.9842 14.9002 33.0162 15.0423 33.0497C15.0764 33.0579 15.325 33.0588 15.367 33.0655C15.733 33.1224 15.1735 33.2138 15.0761 33.2296C14.7062 33.29 15.0295 33.319 14.8838 33.3656C14.7381 33.4122 14.5562 33.342 14.4677 33.3965C14.2848 33.5095 14.3248 33.655 14.3133 33.77C14.3102 33.8159 14.6422 33.7848 14.6494 33.7914C14.7335 33.8864 14.3804 33.982 15.0415 34.0349C13.3321 34.1 15.2073 34.0921 14.8651 34.2275C14.8374 34.2382 14.029 34.2517 13.9104 34.2106C13.7918 34.1695 14.0445 34.1074 13.8595 34.0504C13.8161 34.0369 13.0586 33.9593 13.0128 33.9488C12.6542 33.866 13.8622 33.8549 13.9286 33.8506C14.6446 33.8016 13.8286 33.7066 13.7723 33.6816C13.514 33.5676 13.684 33.4713 13.4997 33.3757C13.3806 33.3132 12.5893 33.3058 12.6136 33.2568C12.694 33.0937 13.798 33.0399 12.8412 32.8838C12.6372 32.8503 11.7722 32.8806 12.4526 32.7643C12.4955 32.7569 13.1179 32.6713 12.7246 32.6193C12.675 32.6128 12.423 32.6121 12.4018 32.6036C12.2651 32.5468 12.466 32.5099 12.3701 32.4481C12.2742 32.3863 12.1311 32.3117 12.217 32.2419C12.2683 32.1999 12.7382 32.1481 12.8532 32.1285C13.1847 32.0732 12.6421 32.0089 13.0433 31.9759C13.4466 31.9427 14.0583 32.0158 14.3194 31.9244C13.6645 31.9169 12.9925 31.9048 12.3339 31.895C12.3583 31.6897 12.5716 31.4889 12.5446 31.2824C12.5406 31.2568 12.1883 31.2797 12.1749 31.2521C12.1201 31.1355 12.3721 31.0367 12.2735 30.9154C12.1959 30.8214 11.8244 30.7145 11.7318 30.6153C12.4818 30.5654 12.2294 30.4175 12.2995 30.3131C12.3237 30.2766 12.5238 30.2822 12.5895 30.257C12.8325 30.1621 12.1697 30.1978 12.0659 30.169C11.6231 30.0449 13.1219 30.0601 13.0873 29.9232C13.086 29.9161 12.2888 29.8126 12.2393 29.7993C11.9164 29.7151 12.5176 29.7916 12.5775 29.7441C12.6871 29.6573 12.8791 29.5998 12.6474 29.4907C12.5787 29.4589 12.0825 29.3747 12.4689 29.3241C12.5195 29.3175 12.7834 29.3278 12.799 29.3219C13.0593 29.2149 12.2299 29.1925 11.9505 29.1205C11.6712 29.0484 12.2464 28.9621 12.412 28.9461C12.8403 28.9039 12.5934 28.9917 12.6352 28.9956C13.1329 29.0422 13.0489 28.9672 13.0925 28.9128C13.906 28.9262 13.8593 28.8479 13.1345 28.8563C13.0553 28.8574 13.13 28.9027 13.0925 28.9128C12.2958 28.8431 12.196 28.7532 12.9443 28.68C13.2951 28.6458 13.7013 28.6993 13.5562 28.5614C13.4907 28.4987 12.9301 28.5053 12.7791 28.4467C12.4345 28.3124 12.9621 28.169 12.8842 28.0395C12.856 27.9923 12.5479 28.0265 12.5181 27.9938C12.4379 27.9069 12.6705 27.8413 12.5559 27.7526C12.5451 27.7445 12.2236 27.7511 12.2205 27.7247C12.1909 27.5235 12.4034 27.3581 12.4184 27.1503C12.4254 27.0499 12.257 26.8613 12.2977 26.7584C12.3663 26.5796 12.8441 26.3823 12.7396 26.2221C12.6728 26.1174 12.351 26.1212 12.1351 26.0652C11.7166 25.9564 12.4838 25.8526 12.6024 25.8404C12.6063 25.84 12.6766 25.9313 12.8439 25.895C13.1883 25.889 12.6038 25.8415 12.6024 25.8404C12.679 25.8319 12.7625 25.6633 12.7035 25.625C12.6713 25.6041 12.367 25.5951 12.3559 25.5845C12.0993 25.3342 12.0385 25.0929 12.198 24.8661C12.2044 24.8624 12.5433 24.8939 12.5542 24.8849C12.7152 24.7598 12.307 24.6407 12.0697 24.5072C11.8325 24.3739 11.9225 24.2891 12.5102 24.2711C12.4441 24.1795 12.7119 24.0791 12.8742 24.023C13.0365 23.9669 12.3777 23.8981 12.3652 23.8906C11.9653 23.6586 12.3534 23.5801 12.4318 23.3851C12.4701 23.2923 12.3937 23.0929 12.3327 22.9814C12.2833 22.893 12.4429 22.8601 12.3524 22.7737C12.3403 22.762 12.046 22.7406 12.0351 22.7363C11.6936 22.613 12.4058 22.7321 12.5357 22.7287C13.0081 22.7166 13.2601 22.7064 13.0533 22.5748C13.0059 22.5448 11.9828 22.3544 11.9279 22.301C11.8583 22.2324 12.2253 22.298 12.1431 22.2253C12.1364 22.2191 11.9083 22.1934 11.9229 22.156C11.9877 21.982 12.1443 21.8033 12.1454 21.6149C12.1465 21.5892 11.7811 21.5753 11.7767 21.5372C11.7563 21.3584 11.7953 21.1695 11.9876 21.0246C12.0361 20.9891 12.2849 21.0504 12.3612 21.0519C12.8223 21.061 12.1745 20.8902 12.1638 20.8752C12.0133 20.6804 12.1388 20.5467 12.2416 20.4077C12.325 20.2952 12.3935 20.1792 12.289 20.0193C12.275 20.0002 11.592 19.7542 12.2055 19.7942C12.2464 19.7965 12.8734 19.841 12.4596 19.7204C12.4337 19.7128 12.1098 19.6962 12.1526 19.6387C12.1954 19.5814 12.0003 19.444 12.3641 19.4175C12.4787 19.4087 13.1049 19.4515 12.6286 19.2857C12.5951 19.2752 11.5088 18.9539 12.2814 19.0443C12.4086 19.0593 13.2162 19.211 12.8186 19.041C12.7415 19.0082 12.5551 19.0093 12.4512 18.9404C12.291 18.8344 12.5255 18.7754 12.1825 18.6173C12.1216 18.5897 11.586 18.419 12.0125 18.4417C12.0793 18.4453 12.3459 18.5121 12.3814 18.4889C12.5518 18.3793 12.399 18.2017 12.6123 18.0995C12.6874 18.0633 13.1177 18.1734 13.2443 18.1457C13.3708 18.1179 13.5029 18.039 13.3148 17.9466C13.1266 17.8539 12.4219 17.7731 12.3825 17.6817C12.2123 17.2828 12.691 17.0214 12.8257 16.6904C12.8458 16.6411 12.5894 16.6294 12.6014 16.5526C12.6439 16.2703 12.5239 15.7335 13.1044 15.6168C13.5686 15.5251 13.8303 15.8409 14.0353 15.7365C14.133 15.6868 13.3525 15.4183 13.3315 15.3949C13.1165 15.1657 13.4983 15.1375 13.4271 14.9607C13.4123 14.9242 13.0815 14.8742 13.0726 14.8438C13.039 14.7393 13.207 14.6808 13.2024 14.5884C13.1996 14.5467 12.9512 14.4914 12.9794 14.4604C13.0438 14.3856 13.1668 14.3366 13.419 14.3137C13.4419 14.3117 13.7353 14.4413 13.7628 14.382C13.8064 14.2859 14.0666 14.2204 13.8624 14.0426C13.8008 13.9896 13.2392 13.839 13.647 13.868C13.7322 13.874 14.4014 14.0737 13.8415 13.8324C13.7483 13.7929 13.0021 13.4344 13.5278 13.5C13.6661 13.5172 14.2303 13.6195 14.1549 13.5549C14.1426 13.5456 13.8352 13.4857 13.8152 13.4435C13.7497 13.2965 13.8172 13.1772 13.7575 13.0273C13.741 12.987 13.416 12.9494 13.4014 12.8919C13.3608 12.7339 13.4889 12.5836 13.6242 12.4794C13.6746 12.4409 13.9222 12.5487 13.9512 12.5532C14.4229 12.6275 13.8183 12.416 13.788 12.3865C13.6079 12.2054 13.9227 12.1993 13.8783 12.0688C13.8669 12.0325 13.5681 11.9677 13.5438 11.954C13.3075 11.816 13.819 12.0178 13.8885 11.9954C14.0852 11.9332 14.0979 11.8048 14.0941 11.6827C14.0923 11.6373 13.7399 11.5814 13.7423 11.5417C13.7499 11.3057 13.8522 11.0884 14.1044 10.9356C14.1525 10.9071 14.4045 11.0136 14.4664 11.0239C14.899 11.0983 14.3597 10.8356 14.3119 10.7991C14.0937 10.6333 14.334 10.6721 14.3158 10.5816C14.2237 10.1345 14.5306 9.71561 14.7457 9.39288C15.0252 8.96971 15.3959 8.70094 15.4953 8.23792C15.502 8.20871 15.1518 8.1111 15.1534 8.08381C15.1763 7.85925 15.2899 7.67093 15.3734 7.47265C15.4198 7.36203 15.4563 7.25136 15.466 7.12671C15.469 7.09754 15.1347 7.00906 15.1289 6.95778C15.115 6.85112 15.175 6.75157 15.3125 6.70407C15.3788 6.68117 15.6287 6.84898 15.6898 6.82397C15.8325 6.766 15.8972 6.67273 15.8891 6.5487C15.8848 6.49614 15.5333 6.42676 15.5531 6.36865C15.6809 5.97119 15.794 5.56008 16.3861 5.36125C16.427 5.34709 17.0857 5.6231 16.9872 5.51017C16.8096 5.42246 16.5982 5.32441 16.4071 5.23324C16.5651 4.62315 17.068 4.17386 17.4068 3.6406C17.4211 3.61787 17.0676 3.4755 17.0939 3.43016C17.2453 3.1688 17.305 2.85652 17.7847 2.78869C17.8316 2.78208 18.3935 3.13848 18.3524 3.01215C18.3447 2.9894 18.3368 2.83218 18.2321 2.72709C18.216 2.71167 17.9389 2.56928 17.9537 2.52806C18.0444 2.29154 18.2433 2.11148 18.5315 2.01635C18.5785 2.0014 18.8336 2.2157 18.8693 2.20679C19.1205 2.14272 19.023 1.83444 19.3698 1.85513C19.6028 1.87002 20.0546 2.22288 20.5569 2.48384C20.6278 2.52064 20.6776 2.46853 20.9521 2.6471C21.6423 3.09593 22.3734 3.62441 23.1113 4.09944C23.2702 4.20187 23.1534 4.01016 23.5023 4.31017C23.5255 4.33042 23.6137 4.47144 23.7334 4.57126C23.8161 4.64036 24.1048 4.80753 24.2057 4.90333C24.3066 4.99903 24.0599 4.86593 24.1725 4.98762C24.2868 5.11026 24.6114 5.30609 24.6064 5.39461ZM13.6002 23.7726C13.9229 23.7384 12.764 23.6192 13.0349 23.7155C13.0494 23.7202 13.5844 23.7745 13.6002 23.7726ZM13.4504 31.4973C13.9649 31.419 13.2099 31.3558 12.8125 31.4108C12.4156 31.4661 13.2944 31.5213 13.4504 31.4973ZM13.8202 32.3566C14.2258 32.2621 12.5739 32.2389 12.9073 32.3442C12.9262 32.3503 13.7966 32.3621 13.8202 32.3566ZM20.5329 2.80937C20.5463 2.81715 20.5874 2.78255 20.5753 2.77307C20.2822 2.54555 20.2001 2.61531 20.5329 2.80937ZM14.226 33.206C14.4495 33.1764 14.1918 33.0894 13.9138 33.1262C13.6902 33.1558 13.948 33.243 14.226 33.206ZM15.2438 20.6213C15.2611 20.623 15.2822 20.5893 15.1852 20.5747C14.8726 20.5278 14.9528 20.5924 15.2438 20.6213ZM14.2441 34.6456C14.3063 34.4329 15.6709 34.3043 15.5169 34.5356C15.4891 34.5775 15.0818 34.4453 14.9587 34.4986C14.7346 34.5962 15.5914 34.6611 15.1323 34.7608C15.0482 34.7788 14.2375 34.6577 14.2422 34.6452C14.2428 34.6453 14.2435 34.6454 14.2441 34.6456ZM14.9968 23.8668C15.0123 23.867 15.0316 23.8181 15.0165 23.8155C14.6509 23.7531 14.6117 23.8522 14.9968 23.8668ZM16.3246 18.6591C16.3573 18.6627 16.4101 18.555 16.3812 18.5454C15.8001 18.3666 15.6912 18.5866 16.3246 18.6591ZM15.6187 27.2979C15.9879 27.3689 16.0284 27.4354 15.5598 27.4591C15.5869 27.4059 15.5934 27.3513 15.6187 27.2979Z"/></g></svg>