<svg preserveAspectRatio="none" width="100%" height="100%" overflow="visible" style="display: block;" viewBox="0 0 9 12" fill="none" xmlns="http://www.w3.org/2000/svg">
<g id="closing quotation mark ">
<path id="Vector" d="M4.90613 1.64326C4.93604 1.69366 4.87938 1.7363 4.80996 1.76224C4.7884 1.77041 4.70809 1.74398 4.68948 1.74872C4.65327 1.75802 4.6894 1.78377 4.6471 1.79138C4.6327 1.79381 4.50469 1.75512 4.49254 1.75839C4.42696 1.77654 4.45225 1.81501 4.41633 1.84086C4.23919 1.96805 4.15022 2.11382 4.04972 2.26171C4.01672 2.31042 3.8823 2.34691 3.91978 2.41467C3.92427 2.42262 4.03921 2.44648 4.04829 2.45C4.1872 2.50422 3.95875 2.44188 3.92498 2.44702C3.79161 2.46754 3.76699 2.52057 3.7988 2.57921C3.81267 2.60424 4.04425 2.63872 3.91197 2.62842C3.90303 2.62776 3.7833 2.59322 3.76897 2.59568C3.73671 2.60136 3.75222 2.63074 3.74013 2.63826C3.71622 2.65262 3.71664 2.65605 3.71072 2.67365C3.70158 2.69739 3.63399 2.71212 3.65475 2.74508C3.65954 2.7522 3.78552 2.7748 3.80437 2.78886C3.82318 2.80293 3.80667 2.82407 3.7754 2.82498C3.74411 2.82588 3.64743 2.79889 3.62471 2.7949C3.43305 2.76095 3.68746 2.85163 3.69304 2.85671C3.78692 2.9476 3.62405 2.967 3.60927 3.02742C3.59831 3.07362 3.63521 3.13419 3.61746 3.17638C3.59588 3.2263 3.51754 3.25426 3.51646 3.30753C3.5162 3.31311 3.66376 3.34184 3.66374 3.34872C3.66341 3.42193 3.63037 3.48667 3.51462 3.53204C3.50289 3.53654 3.37688 3.49711 3.35749 3.49979C3.24162 3.51682 2.97173 3.52392 3.52392 3.6814C3.49499 3.70493 3.46386 3.73428 3.34497 3.73314C3.26844 3.73246 3.13268 3.68337 3.18726 3.71783C3.19941 3.72556 3.32327 3.74853 3.33223 3.75793C3.36987 3.79749 3.32232 3.81956 3.37853 3.86297C3.39025 3.8719 3.50031 3.89616 3.51966 3.90246C3.67619 3.95401 3.40611 3.91474 3.38566 3.91524C3.23299 3.91967 3.2825 3.96092 3.27026 3.99573C3.26736 4.00379 3.41712 4.02859 3.41962 4.03755C3.43069 4.08351 3.40752 4.12351 3.33231 4.14839C3.31523 4.15387 3.19167 4.11635 3.17708 4.11747C3.11429 4.12271 3.3504 4.18235 3.29473 4.18855C3.2833 4.18995 3.17633 4.16275 3.16435 4.16071C2.97635 4.12855 3.23665 4.19915 3.24176 4.20327C3.31238 4.25711 3.03266 4.21623 3.06315 4.25971C3.06707 4.26495 3.20538 4.28719 3.2081 4.29999C3.22709 4.38539 3.17007 4.45835 3.04303 4.50931C3.02344 4.51735 2.92319 4.48551 2.9104 4.48335C2.71047 4.45059 2.97255 4.51879 2.98157 4.52491C3.04583 4.57183 2.81771 4.54963 3.12725 4.64195C3.09797 4.66387 3.08126 4.68847 3.07031 4.71415C3.0287 4.81219 3.06894 4.92735 2.8225 4.97923C2.81885 4.98015 2.6893 4.94851 2.68259 4.95043C2.60041 4.97355 2.80458 5.01055 3.04626 5.09067C3.10694 5.11083 2.80343 5.06519 2.78111 5.06215C2.69888 5.05091 2.50658 5.00183 2.49045 5.00055C2.36354 4.99155 3.00522 5.12879 3.00003 5.15251C2.99879 5.15299 2.8815 5.12415 2.86931 5.12359C2.83106 5.12175 2.87657 5.13803 2.83454 5.13539C2.73735 5.12891 2.42462 5.06631 2.60111 5.12711C2.62404 5.13487 2.98871 5.20967 2.96674 5.22711C2.95769 5.23387 2.95542 5.27291 2.92948 5.27835C2.90357 5.28379 2.78792 5.25139 2.78267 5.25103C2.62123 5.24611 2.55938 5.22155 2.32657 5.18667C2.09461 5.15199 2.6411 5.26475 2.7007 5.28359C2.76012 5.30243 2.62747 5.29603 2.58183 5.29171C2.53617 5.28739 2.46305 5.26507 2.43684 5.26431C2.2655 5.25967 2.70479 5.33519 2.78921 5.36347C2.98922 5.43003 2.58029 5.36295 2.53586 5.37615C2.52387 5.37971 2.61713 5.39439 2.62462 5.40135C2.65307 5.42871 2.524 5.41451 2.63475 5.46223C2.65279 5.47003 2.89225 5.53955 2.71087 5.51447C2.68472 5.51083 2.58482 5.48495 2.56031 5.48895C2.52358 5.49475 2.49632 5.51415 2.52706 5.53511C2.5498 5.55067 2.71878 5.57307 2.66428 5.57543C2.63995 5.57647 2.54489 5.54571 2.5073 5.54931C2.46974 5.55287 2.46806 5.58155 2.46915 5.59291C2.47033 5.60419 2.59786 5.62415 2.60619 5.62671C2.65382 5.64183 2.71046 5.67431 2.70993 5.67603C2.70638 5.76855 2.47602 5.80927 2.52884 5.91079C2.5328 5.91875 2.66719 5.93995 2.66917 5.94143C2.72035 5.97567 2.36923 5.88863 2.2471 5.88235C2.51846 5.93211 2.46744 5.93239 2.49385 5.95459C2.5068 5.96531 2.61257 5.98107 2.62317 5.98383C2.78017 6.02607 2.57269 5.99507 2.53015 5.98919C2.37366 5.96763 2.55501 6.01095 2.4504 5.99663C2.34655 5.98255 2.19662 5.94131 2.19539 5.95775C2.29154 5.98055 2.54743 6.01671 2.58616 6.03647C2.73265 6.11099 2.5173 6.15835 2.48969 6.19135C2.46207 6.22439 2.4779 6.23895 2.43876 6.25423C2.36807 6.28163 2.55926 6.30075 2.64128 6.33939C2.72331 6.37807 2.26122 6.28595 2.16081 6.27203C2.06044 6.25819 2.16243 6.27979 2.10682 6.27455C2.05121 6.26939 1.98504 6.24831 1.96262 6.25491C1.9402 6.26159 2.11279 6.31951 2.21659 6.34071C2.43644 6.38583 2.67073 6.41319 2.58456 6.42531C2.57945 6.42599 2.45816 6.40047 2.4448 6.40411C2.3427 6.43383 2.32868 6.48035 2.23765 6.51323C2.22494 6.51771 2.08979 6.49027 2.08085 6.49267C1.98735 6.51743 2.21915 6.54027 2.47077 6.60111C2.13213 6.54315 1.9225 6.52243 1.91569 6.55187C1.9115 6.56951 2.0603 6.58931 2.16304 6.61663C2.19402 6.62483 2.09016 6.62187 2.15959 6.63467C2.38654 6.67643 2.64369 6.70343 2.53744 6.71735C2.5324 6.71795 2.40815 6.69519 2.39988 6.69855C2.34582 6.72055 2.58404 6.75899 2.60832 6.79387C2.62737 6.82131 2.47535 6.84383 2.44769 6.86859C2.06497 6.81595 2.14876 6.85527 2.41137 6.90083C2.39805 6.91759 2.41036 6.93883 2.37149 6.95183C2.35824 6.95631 2.2478 6.93827 2.2357 6.93751C2.04603 6.92563 2.30211 6.96599 2.3117 6.97107C2.31834 6.97499 2.32348 6.97867 2.32737 6.98219C2.37759 7.02719 2.21814 7.04227 2.39118 7.09795C2.3979 7.10015 2.66454 7.13059 2.46854 7.12031C2.45502 7.11967 2.33498 7.09387 2.32358 7.11151C2.31221 7.12835 2.1653 7.15163 2.2872 7.18711C2.3165 7.19603 2.53269 7.22623 2.36204 7.22607C2.33886 7.22611 2.26216 7.21927 2.21925 7.21883C2.08247 7.21823 2.35305 7.23835 2.12237 7.23455C1.89171 7.23055 1.71782 7.24747 1.87588 7.28375C1.88047 7.28503 2.09526 7.29739 2.09171 7.30535C2.08583 7.31827 2.04094 7.33807 2.04259 7.35263C2.04345 7.35951 2.17691 7.35279 2.17937 7.35395C2.25526 7.39319 2.13736 7.42291 2.09385 7.47955C2.08612 7.49227 2.26787 7.47439 2.13175 7.52103C1.98631 7.58183 1.34237 7.72503 1.52909 7.78479C1.56712 7.79679 1.78404 7.73655 1.9377 7.68323C2.09342 7.63319 2.17651 7.57887 2.01095 7.71571C2.08111 7.72271 2.08648 7.76655 2.11665 7.81195C2.14416 7.85579 2.1965 7.89139 2.2534 7.82599C2.25996 7.82051 2.30792 7.59827 2.30935 7.60151C2.31384 7.60723 2.30748 7.71323 2.31392 7.72075C2.34259 7.75475 2.36684 7.66311 2.39209 7.67487C2.4021 7.67899 2.41072 7.78847 2.42571 7.79283C2.44166 7.79687 2.42739 7.65291 2.45535 7.71887C2.47624 7.76923 2.55427 8.05515 2.58748 8.08295C2.52124 7.79899 2.53548 7.80203 2.53727 7.72203C2.53743 7.70655 2.50639 7.60975 2.50499 7.59739C2.49786 7.54519 2.52799 7.62419 2.51842 7.56771C2.5161 7.55415 2.4879 7.45859 2.48422 7.44215C2.45057 7.29923 2.53273 7.50851 2.54923 7.54423C2.60815 7.68111 2.57387 7.55591 2.6017 7.60819C2.63072 7.66003 2.64001 7.73391 2.66377 7.76327C2.71362 7.82383 2.74466 7.79535 2.77113 7.78991C2.78201 7.78699 2.72456 7.66647 2.72495 7.66319C2.7315 7.62439 2.81073 7.74503 2.71458 7.49763C3.00359 8.12043 2.69937 7.43195 2.78222 7.54575C2.78889 7.55499 2.92714 7.84875 2.93712 7.89635C2.94688 7.94403 2.89112 7.85755 2.90792 7.93099C2.91231 7.94807 3.01385 8.23507 3.01723 8.25355C3.04956 8.39575 2.85978 7.94951 2.84876 7.92523C2.7274 7.66435 2.82996 7.97567 2.83109 7.99939C2.84009 8.10679 2.78852 8.05283 2.78817 8.13095C2.78761 8.18151 2.88728 8.48267 2.86698 8.47895C2.79588 8.46743 2.66361 8.04535 2.7088 8.42947C2.71762 8.51143 2.81353 8.84499 2.70027 8.59151C2.69184 8.57587 2.60358 8.34011 2.61393 8.49827C2.615 8.51827 2.63418 8.61731 2.63185 8.62635C2.61523 8.68503 2.58444 8.60875 2.55748 8.65135C2.53002 8.69395 2.49685 8.75543 2.44697 8.72447C2.41707 8.70599 2.37686 8.51923 2.36607 8.47335C2.33707 8.34155 2.29097 8.55739 2.27751 8.39579C2.27123 8.23375 2.313 7.99135 2.29146 7.88511C2.26524 8.14579 2.23427 8.41295 2.20101 8.67443C2.03418 8.64799 1.85083 8.51307 1.65863 8.38923C1.6339 8.37351 1.57331 8.50507 1.54202 8.48875C1.40635 8.41379 1.39709 8.25271 1.29456 8.17443C1.21315 8.11263 1.02908 8.08583 0.958553 8.01223C1.22229 7.85095 1.09583 7.79299 1.10898 7.72151C1.11357 7.69743 1.19416 7.68287 1.2175 7.66367C1.30491 7.59479 1.04287 7.66515 0.998051 7.65651C0.807226 7.61423 1.41466 7.52983 1.39496 7.48299C1.39414 7.48175 1.0654 7.46811 1.04479 7.46283C0.910342 7.43627 1.158 7.45091 1.18109 7.43011C1.22355 7.39195 1.30112 7.37071 1.20527 7.33423C1.17687 7.32399 0.973375 7.29467 1.13142 7.27723C1.15211 7.27503 1.26008 7.27895 1.26645 7.27707C1.37286 7.24403 1.03377 7.23231 0.919906 7.20463C0.806126 7.17643 1.04217 7.15551 1.10993 7.15475C1.28532 7.15003 1.18364 7.17143 1.20072 7.17343C1.40379 7.19527 1.36997 7.17223 1.38827 7.15803C1.72047 7.17803 1.70198 7.15751 1.40593 7.14323C1.37358 7.14179 1.40366 7.15599 1.38827 7.15803C1.0634 7.12295 1.02399 7.08987 1.33027 7.09039C1.47384 7.09075 1.63885 7.11623 1.58135 7.07687C1.55544 7.05911 1.32676 7.04327 1.26604 7.02303C1.12762 6.97575 1.34481 6.95759 1.31512 6.92295C1.30435 6.91023 1.17844 6.90671 1.1668 6.89747C1.1361 6.87323 1.22789 6.86635 1.18828 6.84139C1.18757 6.84095 1.18681 6.84051 1.18601 6.84003C1.18175 6.83767 1.0509 6.82603 1.05005 6.81955C1.04112 6.76987 1.13014 6.73919 1.13939 6.69051C1.14378 6.66703 1.07827 6.61451 1.09636 6.59199C1.12694 6.55255 1.32372 6.52903 1.28351 6.48675C1.25788 6.45899 1.12733 6.44411 1.04053 6.42051C0.872313 6.37455 1.18484 6.38775 1.23308 6.39083C1.23466 6.39095 1.26194 6.41579 1.33027 6.41555C1.46999 6.43119 1.23308 6.39083 1.23308 6.39083C1.26427 6.39251 1.30026 6.35775 1.27684 6.34579C1.26403 6.33931 1.14083 6.32195 1.13647 6.31891C1.03563 6.24763 1.01385 6.18835 1.08086 6.14379C1.08351 6.14327 1.22038 6.16807 1.22488 6.16659C1.29134 6.14623 1.12729 6.09723 1.03247 6.05411C0.937681 6.01107 0.974864 5.99603 1.21279 6.02271C1.18674 5.99831 1.29583 5.98935 1.36186 5.98495C1.42789 5.98055 1.16188 5.93011 1.15689 5.92771C0.996631 5.85351 1.154 5.85587 1.18645 5.81555C1.20241 5.79607 1.17207 5.74695 1.14766 5.71807C1.12792 5.69507 1.19237 5.69635 1.15592 5.67187C1.15106 5.66859 1.03222 5.64811 1.02781 5.64651C0.889989 5.60035 1.17752 5.66523 1.22998 5.67131C1.42073 5.69363 1.52255 5.70431 1.43896 5.66363C1.41982 5.65431 1.00665 5.55695 0.984399 5.54195C0.956217 5.52267 1.10443 5.55699 1.07112 5.53607C1.06841 5.53431 0.976308 5.51635 0.982109 5.50871C1.00782 5.47299 1.07035 5.44051 1.06967 5.39811C1.06994 5.39235 0.922545 5.37015 0.92054 5.36131C0.911299 5.31963 0.925441 5.27963 1.00159 5.25671C1.02077 5.25127 1.12163 5.27787 1.15235 5.28215C1.33826 5.30791 1.07551 5.23619 1.07105 5.23227C0.957596 5.13847 1.20967 5.13787 1.10997 5.04591C1.10406 5.04079 0.825161 4.95179 1.07257 4.99107C1.08904 4.99367 1.34203 5.03443 1.17342 4.98691C1.16287 4.98395 1.03232 4.96435 1.0485 4.95347C1.06464 4.94255 0.983577 4.90207 1.12923 4.91383C1.17514 4.91747 1.42774 4.95723 1.23285 4.89675C1.21921 4.89271 0.775816 4.76815 1.08817 4.82559C1.13959 4.83503 1.46743 4.90771 1.30389 4.85039C1.27217 4.83931 1.19731 4.83071 1.154 4.81023C1.08722 4.77879 1.18007 4.77607 1.0384 4.72451C1.01331 4.71543 0.794005 4.65199 0.965741 4.67703C0.992635 4.68095 1.10135 4.70843 1.11504 4.70483C1.18067 4.68783 1.11456 4.64071 1.19726 4.62727C1.22634 4.62247 1.40206 4.66695 1.45205 4.66631C1.50203 4.66563 1.5528 4.65343 1.4746 4.62403C1.39639 4.59455 1.11145 4.54467 1.09293 4.52227C1.01267 4.42411 1.19551 4.38651 1.2375 4.31651C1.24338 4.30675 1.153 4.29431 1.14352 4.27871C1.1429 4.27771 1.14262 4.27671 1.14274 4.27567C1.1495 4.21359 1.08008 4.08683 1.3067 4.08351C1.4882 4.08087 1.6061 4.16351 1.68353 4.14751C1.7205 4.13975 1.39725 4.04783 1.38785 4.04171C1.29198 3.98111 1.44299 3.98933 1.40647 3.94613C1.39889 3.9372 1.26467 3.91326 1.25968 3.90599C1.24147 3.88085 1.30561 3.87404 1.29936 3.85267C1.29624 3.84303 1.1946 3.82113 1.2043 3.81515C1.22635 3.8006 1.27295 3.79383 1.37221 3.7979C1.38126 3.79827 1.50452 3.83859 1.51253 3.826C1.52513 3.80552 1.62544 3.79977 1.53503 3.7516C1.50781 3.73722 1.27651 3.68303 1.44025 3.70404C1.47445 3.7084 1.75119 3.77759 1.51578 3.70264C1.47666 3.69019 1.16073 3.5826 1.37325 3.61566C1.42918 3.62435 1.65906 3.66698 1.62555 3.64959C1.62015 3.64703 1.4947 3.62287 1.48442 3.61251C1.45037 3.57651 1.47046 3.55173 1.43829 3.51517C1.42946 3.50535 1.29824 3.48604 1.28917 3.4724C1.264 3.43497 1.30592 3.4053 1.35339 3.38543C1.37113 3.37818 1.47575 3.41075 1.48753 3.41268C1.67906 3.44458 1.42655 3.37717 1.41275 3.36949C1.33036 3.32257 1.45472 3.33095 1.42906 3.29944C1.42229 3.29082 1.29988 3.26685 1.28939 3.26297C1.18714 3.22426 1.40238 3.28598 1.42851 3.28304C1.50245 3.275 1.49938 3.24576 1.48997 3.21757C1.48633 3.20717 1.34324 3.18395 1.34161 3.175C1.32923 3.12151 1.35504 3.07499 1.44411 3.04694C1.46113 3.04173 1.56798 3.07301 1.59316 3.07708C1.76922 3.10573 1.53793 3.0311 1.51652 3.02148C1.41875 2.97771 1.51632 2.99302 1.50273 2.97167C1.43452 2.86743 1.5237 2.77959 1.58249 2.71075C1.65858 2.62053 1.78135 2.56639 1.77923 2.46254C1.77923 2.456 1.6338 2.42748 1.63195 2.4214C1.61463 2.34428 1.68797 2.29014 1.6639 2.21112C1.66218 2.20469 1.52376 2.17983 1.51642 2.16839C1.50039 2.14479 1.51377 2.12302 1.56208 2.11475C1.58538 2.11065 1.69926 2.15133 1.72033 2.14663C1.76964 2.13576 1.78522 2.115 1.76895 2.08768C1.76173 2.07596 1.6187 2.05629 1.62019 2.04369C1.62748 1.95711 1.62426 1.86948 1.82616 1.8295C1.84003 1.82676 2.12466 1.89067 2.07344 1.8652C1.99504 1.84514 1.90253 1.82268 1.81858 1.80181C1.8041 1.66983 1.93285 1.57407 1.97896 1.45663C1.98087 1.45167 1.82851 1.42386 1.83144 1.41407C1.84826 1.35742 1.82089 1.29163 1.98503 1.26958C2.0011 1.26734 2.2644 1.33482 2.22884 1.30796C2.22232 1.30317 2.19369 1.26879 2.13807 1.24812C2.12965 1.24511 2.0052 1.2197 2.00373 1.21052C1.99733 1.15773 2.0384 1.11402 2.12601 1.0843C2.14038 1.07956 2.26952 1.11992 2.2809 1.11682C2.36061 1.0946 2.27175 1.02752 2.4005 1.01916C2.48716 1.01368 2.71166 1.07843 2.93839 1.11969C2.97038 1.1255 2.97935 1.11118 3.10949 1.14214C3.43675 1.21995 3.7926 1.31493 4.14167 1.39697C4.21682 1.41466 4.14134 1.3741 4.3195 1.43073C4.3314 1.43456 4.38769 1.46435 4.44824 1.4831C4.49009 1.49608 4.62345 1.52372 4.67651 1.5423C4.72953 1.56087 4.61727 1.53959 4.67901 1.56397C4.74147 1.58854 4.8928 1.62144 4.90613 1.64326ZM1.65693 5.96607C1.78757 5.97527 1.31971 5.88655 1.4287 5.92303C1.43452 5.92491 1.65051 5.96567 1.65693 5.96607ZM2.00661 8.16875C2.05326 7.96443 1.86448 8.20423 1.82987 8.36795C1.81161 8.53843 2.00094 8.23415 2.00661 8.16875ZM2.44177 8.08111C2.39749 7.92255 2.43728 8.58243 2.47757 8.44459C2.47997 8.43675 2.44484 8.09023 2.44177 8.08111ZM2.98618 1.19707C2.99237 1.19838 3.00121 1.18867 2.99519 1.18692C2.84986 1.14508 2.83229 1.16451 2.98618 1.19707ZM2.64965 7.86983C2.61503 7.78683 2.625 7.89167 2.66697 7.99539C2.70185 8.07855 2.69404 7.97275 2.64965 7.86983ZM2.30832 5.32883C2.31531 5.33007 2.32334 5.32331 2.28406 5.31519C2.15754 5.28911 2.19073 5.30791 2.30832 5.32883ZM2.97794 7.73079C2.91778 7.73135 2.66275 7.24499 2.73142 7.28167C2.74441 7.28803 2.78982 7.44719 2.8215 7.48699C2.8809 7.55875 2.74174 7.24391 2.84383 7.39955C2.86313 7.42775 2.98231 7.73167 2.97819 7.73151L2.97794 7.73079ZM2.22104 6.06163C2.22729 6.06243 2.23531 6.05243 2.22923 6.05099C2.08175 6.01739 2.06545 6.03783 2.22104 6.06163ZM2.70227 4.92135C2.71553 4.92355 2.73369 4.90075 2.72183 4.89719C2.48364 4.83027 2.44611 4.87667 2.70227 4.92135ZM2.43741 6.86767C2.5865 6.89995 2.60211 6.91627 2.41137 6.90083C2.42307 6.89019 2.42646 6.87827 2.43741 6.86767Z" fill="var(--fill-0, #C0BD6D)"/>
<path id="Vector_2" d="M8.59262 2.65627C8.61655 2.71692 8.55371 2.76732 8.48004 2.79763C8.45713 2.80718 8.37907 2.77465 8.35964 2.78013C8.32172 2.79087 8.3551 2.82209 8.31129 2.83074C8.29635 2.83348 8.17146 2.78577 8.15874 2.78955C8.08997 2.81055 8.11071 2.85692 8.07103 2.88746C7.87532 3.03781 7.76658 3.21142 7.64578 3.38747C7.6061 3.44556 7.46516 3.48757 7.49445 3.56928C7.49801 3.57885 7.61146 3.60883 7.62025 3.61315C7.75411 3.67979 7.5305 3.60233 7.4956 3.60809C7.35774 3.63112 7.32599 3.69426 7.3507 3.76501C7.3615 3.79521 7.59186 3.8394 7.45907 3.82544C7.45007 3.82455 7.33315 3.78163 7.3183 3.78441C7.28488 3.79079 7.29682 3.82617 7.28361 3.83503C7.25751 3.85193 7.25751 3.85605 7.2492 3.87709C7.23685 3.90553 7.16649 3.92217 7.18326 3.96196C7.18719 3.97056 7.31196 3.99931 7.32926 4.01643C7.34649 4.03355 7.32701 4.05871 7.29519 4.05943C7.26332 4.06011 7.16882 4.02643 7.14632 4.02135C6.95646 3.97804 7.20261 4.09015 7.2076 4.09631C7.29089 4.20671 7.12333 4.22755 7.10042 4.29995C7.08332 4.35499 7.11265 4.42855 7.08917 4.47871C7.06074 4.53831 6.97765 4.57063 6.96951 4.63455C6.96849 4.64123 7.11425 4.67803 7.1133 4.68631C7.10328 4.77419 7.0611 4.85151 6.93776 4.90403C6.92525 4.90923 6.80285 4.85975 6.78284 4.86263C6.6631 4.88123 6.38881 4.88447 6.92705 5.08367C6.89461 5.11131 6.85906 5.14603 6.73874 5.14255C6.66126 5.14035 6.53035 5.07883 6.58104 5.12115C6.59229 5.13063 6.71465 5.16059 6.72246 5.17203C6.75527 5.22015 6.70405 5.24583 6.75506 5.29915C6.7657 5.31007 6.8739 5.34139 6.89264 5.34935C7.04417 5.41435 6.77593 5.36183 6.75515 5.36199C6.59986 5.36435 6.64436 5.41483 6.62718 5.45635C6.62313 5.46599 6.77143 5.49891 6.7727 5.50979C6.77748 5.56551 6.74856 5.61279 6.66883 5.64131C6.65075 5.64755 6.53084 5.59963 6.51591 5.60067C6.45152 5.60571 6.68241 5.68251 6.62518 5.68871C6.6134 5.69011 6.50883 5.65499 6.49701 5.65227C6.31112 5.60923 6.56484 5.70007 6.56946 5.70519C6.63336 5.77171 6.35587 5.71591 6.38066 5.76875C6.3839 5.77515 6.52078 5.80523 6.52176 5.82071C6.52884 5.92411 6.46076 6.01015 6.3247 6.06835C6.30371 6.07743 6.2068 6.03639 6.1942 6.03347C5.99657 5.98843 6.252 6.07767 6.26027 6.08527C6.31856 6.14335 6.09082 6.11047 6.39069 6.23027C6.234 6.35159 6.35731 6.55859 6.03204 6.62647C6.02823 6.62743 5.90203 6.58463 5.89495 6.58671C5.80839 6.61139 6.00913 6.66351 6.24112 6.76915C6.29938 6.79571 5.99956 6.72919 5.97746 6.72467C5.8961 6.70795 5.70926 6.64155 5.69315 6.63939C5.56629 6.62351 6.19375 6.81347 6.18475 6.84207C6.1834 6.84263 6.06935 6.80331 6.05707 6.80215C6.0187 6.79851 6.0621 6.82003 6.02009 6.81507C5.92285 6.80339 5.6166 6.71535 5.78548 6.79551C5.80745 6.80583 6.16434 6.91063 6.1393 6.93095C6.12903 6.93895 6.12061 6.98583 6.09348 6.99131C6.06644 6.99683 5.95472 6.95283 5.94948 6.95219C5.78711 6.93939 5.72853 6.90711 5.49891 6.85491C5.2701 6.80299 5.80421 6.96271 5.8614 6.98799C5.91847 7.01323 5.78552 6.99955 5.74011 6.99227C5.6947 6.98495 5.62442 6.95487 5.59807 6.95271C5.4258 6.93915 5.85731 7.05015 5.93803 7.08815C6.12911 7.17791 5.7271 7.07779 5.68014 7.09147C5.66745 7.09515 5.75921 7.11727 5.76564 7.12603C5.78985 7.16043 5.66189 7.13707 5.76588 7.19979C5.78282 7.21003 6.01306 7.30583 5.83408 7.26659C5.80826 7.26087 5.71176 7.22463 5.68631 7.22827C5.64823 7.23359 5.61763 7.25503 5.64512 7.28191C5.66549 7.30179 5.83224 7.33771 5.77685 7.33771C5.7521 7.33767 5.66136 7.29555 5.62282 7.29795C5.58433 7.30023 5.57782 7.33455 5.57705 7.34815C5.57631 7.36171 5.70157 7.39283 5.70955 7.39643C5.75504 7.41719 5.80659 7.45959 5.80573 7.46167C5.78609 7.57363 5.54677 7.60855 5.58167 7.73423C5.5842 7.74403 5.71573 7.77863 5.71745 7.78055C5.76273 7.82539 5.42495 7.69675 5.30316 7.68071C5.56735 7.75919 5.51593 7.75603 5.53843 7.78471C5.54947 7.79859 5.6531 7.82491 5.66324 7.82899C5.8135 7.89091 5.61035 7.83903 5.56862 7.82891C5.41513 7.79179 5.58965 7.85691 5.48701 7.83219C5.3851 7.80775 5.24184 7.74739 5.23758 7.76695C5.33012 7.80135 5.58093 7.86331 5.6162 7.89003C5.74964 7.99099 5.52366 8.03271 5.48946 8.07019C5.45534 8.10759 5.46819 8.12703 5.42593 8.14191C5.34951 8.16879 5.53765 8.20839 5.6121 8.26271C5.68652 8.31711 5.24143 8.16439 5.14345 8.13867C5.04556 8.11287 5.14357 8.14799 5.08884 8.13659C5.03414 8.12519 4.97192 8.09407 4.94819 8.09967C4.92446 8.10531 5.08593 8.19051 5.18563 8.22591C5.39688 8.30083 5.62626 8.35571 5.53724 8.36247C5.532 8.36279 5.41566 8.32047 5.4015 8.32367C5.29289 8.34999 5.269 8.40483 5.17094 8.43435C5.15728 8.43835 5.02792 8.39107 5.01847 8.39291C4.91972 8.41227 5.14672 8.46455 5.38502 8.56543C5.05901 8.45863 4.85402 8.41047 4.84097 8.44427C4.83303 8.46455 4.97732 8.50519 5.07391 8.54971C5.10303 8.56311 5.00002 8.54739 5.0665 8.57083C5.28377 8.64755 5.53458 8.70983 5.42503 8.71499C5.41987 8.71511 5.30099 8.67295 5.29195 8.67607C5.23296 8.69611 5.46185 8.77135 5.4776 8.81751C5.48995 8.85371 5.33265 8.86275 5.29899 8.88919C4.93068 8.77471 5.00485 8.83243 5.2548 8.92375C5.23738 8.94227 5.24417 8.97023 5.20224 8.98039C5.18792 8.98395 5.08274 8.94623 5.07092 8.94359C4.88556 8.90175 5.1297 8.98755 5.13789 8.99523C5.21565 9.07523 5.01491 9.05883 5.18231 9.16395C5.18837 9.16771 5.44348 9.24955 5.25235 9.20483C5.23918 9.20171 5.1279 9.14967 5.1115 9.16975C5.0951 9.18983 4.94394 9.19055 5.0523 9.25891C5.0784 9.27539 5.27996 9.35899 5.11256 9.32443C5.08982 9.31971 5.01712 9.29475 4.97531 9.28515C4.84199 9.25463 5.09902 9.33983 4.87554 9.28335C4.65205 9.22687 4.47978 9.19971 4.62108 9.27855C4.62517 9.28091 4.8278 9.35183 4.82133 9.36087C4.81078 9.37531 4.7607 9.38491 4.75661 9.40211C4.75473 9.41035 4.88376 9.44451 4.8856 9.44663C4.93956 9.52267 4.8136 9.52607 4.74565 9.56871C4.73293 9.57643 4.89677 9.66051 4.75281 9.63867C4.59523 9.61479 3.97752 9.39859 4.10972 9.49639C4.16257 9.53567 4.94721 9.80707 4.52413 9.71771C4.60243 9.82199 4.37035 9.82443 4.49218 9.94235C4.49754 9.94763 4.71558 10.0264 4.71006 10.0332C4.70147 10.0431 4.59596 10.0175 4.58651 10.0236C4.54425 10.0482 4.62264 10.107 4.59817 10.1358C4.58913 10.1468 4.48355 10.1094 4.47275 10.1225C4.46203 10.1356 4.59969 10.1891 4.52511 10.1884C4.46829 10.1877 4.17542 10.1141 4.13529 10.1241C4.41903 10.2126 4.40868 10.2247 4.47565 10.2727C4.48866 10.2819 4.58917 10.3074 4.60042 10.3133C4.64841 10.3382 4.56373 10.3214 4.61638 10.3473C4.62902 10.3535 4.72597 10.3836 4.74176 10.3903C4.87987 10.4492 4.65385 10.4061 4.6145 10.3986C4.46505 10.37 4.5888 10.4164 4.52801 10.4112C4.46726 10.4059 4.40214 10.3656 4.36307 10.3693C4.28219 10.3769 4.28555 10.4198 4.27135 10.4486C4.26628 10.4602 4.39841 10.492 4.4007 10.4946C4.42554 10.5296 4.27965 10.5122 4.53313 10.6056C3.86071 10.417 4.59298 10.6406 4.448 10.6349C4.4363 10.6344 4.11982 10.5405 4.07698 10.5155C4.0342 10.4905 4.13803 10.5046 4.07068 10.4674C4.05488 10.4587 3.76591 10.3472 3.7489 10.3389C3.61597 10.2741 4.08822 10.4166 4.11446 10.4234C4.39796 10.4967 4.08761 10.3737 4.06771 10.3604C3.97653 10.2995 4.05097 10.2947 3.98706 10.2476C3.94582 10.217 3.63765 10.1201 3.65123 10.1102C3.69618 10.0774 4.1316 10.1955 3.77115 10.0401C3.69429 10.007 3.35415 9.91131 3.62938 9.96247C3.64673 9.96567 3.8968 10.0178 3.74755 9.95719C3.72873 9.94955 3.63039 9.91923 3.62284 9.91451C3.57414 9.88335 3.65563 9.89779 3.62326 9.87023C3.5909 9.84267 3.54117 9.80623 3.5804 9.79831C3.60389 9.79347 3.79164 9.83595 3.83819 9.84455C3.97219 9.86959 3.76549 9.78827 3.92491 9.82739C4.08515 9.86667 4.31811 9.95855 4.42754 9.96559C4.17239 9.88583 3.91085 9.80279 3.65441 9.72203C3.68061 9.67151 3.78015 9.64459 3.78613 9.58763C3.78662 9.58047 3.64709 9.54487 3.64408 9.53611C3.63194 9.49939 3.7383 9.50343 3.70935 9.46031C3.68642 9.42675 3.54953 9.35547 3.52103 9.31899C3.81831 9.39387 3.73113 9.32591 3.76661 9.30703C3.77891 9.30039 3.85677 9.32511 3.88443 9.32623C3.98686 9.32983 3.72468 9.26199 3.68629 9.24247C3.52248 9.15891 4.108 9.33687 4.10497 9.29707C4.10501 9.29503 3.80073 9.17587 3.78234 9.16675C3.66225 9.10763 3.89189 9.19691 3.91897 9.19147C3.96844 9.18159 4.04801 9.18867 3.9654 9.13363C3.94089 9.11743 3.7527 9.03867 3.90787 9.06983C3.92819 9.07391 4.03085 9.10683 4.0374 9.10707C4.1474 9.10899 3.82394 9.00827 3.7197 8.95775C3.61548 8.90727 3.84723 8.95051 3.91333 8.96515C4.08435 9.00291 3.98113 8.99767 3.99724 9.00343C4.189 9.07223 4.16155 9.04311 4.18262 9.03387C4.50069 9.12979 4.48809 9.10383 4.2032 9.02387C4.17206 9.01515 4.19804 9.03547 4.18262 9.03387C3.8753 8.92511 3.84253 8.89075 4.14138 8.95627C4.28146 8.98699 4.43699 9.04687 4.38999 8.99427C4.3688 8.97047 4.14834 8.90907 4.09323 8.87679C3.96751 8.80315 4.18466 8.82495 4.1631 8.78235C4.15525 8.76691 4.0319 8.74151 4.02242 8.72967C3.9969 8.69819 4.09278 8.70695 4.05377 8.67115C4.05009 8.66787 3.92332 8.63399 3.92389 8.62675C3.92579 8.57139 4.0203 8.55183 4.03969 8.49939C4.049 8.47403 3.99476 8.40679 4.01723 8.38451C4.05544 8.34559 4.25585 8.34515 4.22435 8.29211C4.2043 8.25767 4.07725 8.22463 3.99546 8.18727C3.8369 8.11495 4.14535 8.16887 4.19285 8.17799C4.19444 8.17827 4.21682 8.20951 4.28493 8.21755C4.42108 8.25207 4.19338 8.17839 4.19285 8.17799C4.22357 8.18379 4.26628 8.14843 4.24517 8.13227C4.23359 8.12347 4.1141 8.08951 4.11029 8.08559C4.02317 7.99379 4.01211 7.92531 4.08693 7.88259C4.08967 7.88227 4.22189 7.92483 4.22668 7.92359C4.29688 7.90715 4.14167 7.83483 4.0545 7.77647C3.96737 7.71815 4.00697 7.70543 4.2403 7.75887C4.21858 7.72847 4.32932 7.72863 4.39616 7.72967C4.46305 7.73075 4.20549 7.64847 4.20086 7.64535C4.05317 7.54599 4.21019 7.56343 4.24959 7.51983C4.26873 7.49923 4.24672 7.43987 4.22688 7.40507C4.21076 7.37739 4.27536 7.38367 4.24275 7.35271C4.23842 7.34855 4.12252 7.31563 4.11835 7.31347C3.98757 7.24975 4.26554 7.34679 4.31717 7.35791C4.50494 7.39847 4.60541 7.41867 4.52826 7.36499C4.51059 7.35267 4.11152 7.20935 4.09155 7.19063C4.06629 7.16651 4.20962 7.21695 4.17947 7.19055C4.17705 7.18831 4.08741 7.16095 4.09446 7.15255C4.126 7.11331 4.19379 7.08087 4.19976 7.03179C4.20091 7.02523 4.05625 6.98947 4.05559 6.97923C4.0526 6.93115 4.07302 6.88579 4.153 6.86459C4.17313 6.85947 4.27049 6.89663 4.30072 6.90351C4.48383 6.94499 4.23052 6.84543 4.2266 6.84067C4.12653 6.72571 4.38037 6.73975 4.29369 6.62727C4.28849 6.62103 4.02073 6.50243 4.26411 6.56155C4.28031 6.56547 4.52916 6.62647 4.3663 6.56215C4.35611 6.55815 4.2275 6.52831 4.24537 6.51659C4.26325 6.50487 4.18745 6.45375 4.33251 6.47483C4.3782 6.48147 4.62701 6.54055 4.4394 6.46023C4.42627 6.45475 3.99738 6.28775 4.30391 6.37011C4.35435 6.38367 4.6743 6.48455 4.51779 6.40951C4.48743 6.39503 4.41322 6.38139 4.37252 6.35539C4.30976 6.31543 4.40361 6.31711 4.26824 6.24999C4.24427 6.23819 4.03221 6.15391 4.20176 6.19119C4.22836 6.19703 4.33402 6.23415 4.34834 6.23063C4.4169 6.21391 4.35697 6.15579 4.44231 6.14371C4.47234 6.13935 4.6433 6.19911 4.69382 6.20051C4.74434 6.20191 4.79732 6.18967 4.72262 6.15175C4.64788 6.11383 4.3674 6.04343 4.35186 6.01639C4.28444 5.89883 4.47434 5.86163 4.52638 5.78111C4.53411 5.76919 4.43196 5.74951 4.4363 5.72971C4.4518 5.65667 4.39878 5.50591 4.62824 5.50923C4.81209 5.51187 4.91992 5.61327 5.00039 5.59675C5.03885 5.58867 4.72462 5.47007 4.71595 5.46255C4.62726 5.38811 4.77887 5.40223 4.74774 5.35023C4.74127 5.33951 4.60881 5.30719 4.60472 5.29847C4.58966 5.26839 4.65553 5.26199 4.65205 5.23663C4.65017 5.22515 4.55035 5.19635 4.56095 5.18959C4.5852 5.17307 4.63315 5.16663 4.73301 5.17407C4.74213 5.17475 4.86134 5.22595 4.87116 5.21123C4.88666 5.18727 4.9889 5.18319 4.90389 5.12383C4.87824 5.10611 4.65156 5.03575 4.81438 5.06495C4.84837 5.07103 5.11907 5.16023 4.89096 5.06523C4.85308 5.04939 4.54781 4.91387 4.75833 4.95863C4.81376 4.97039 5.04065 5.02683 5.00906 5.00527C5.00395 5.00211 4.88024 4.97031 4.87124 4.95775C4.84158 4.91415 4.86519 4.88531 4.83745 4.84135C4.82976 4.82955 4.69959 4.80339 4.69218 4.78703C4.67173 4.74199 4.718 4.70791 4.7686 4.68563C4.7875 4.67751 4.88908 4.71851 4.90074 4.72111C5.09039 4.76331 4.84371 4.67751 4.83078 4.66807C4.75355 4.61051 4.87832 4.62335 4.85643 4.58547C4.85071 4.57515 4.72994 4.54395 4.71984 4.53911C4.62141 4.49099 4.83119 4.56895 4.85803 4.56603C4.93391 4.55807 4.93465 4.52327 4.92876 4.48967C4.92643 4.47727 4.78464 4.44663 4.78415 4.43599C4.77858 4.37231 4.8107 4.31779 4.9045 4.28623C4.92242 4.28039 5.02653 4.31971 5.05149 4.32503C5.22605 4.36255 5.00158 4.26927 4.98112 4.25747C4.88781 4.20355 4.9846 4.22367 4.97355 4.19811C4.91808 4.07275 5.01954 3.97045 5.08798 3.88943C5.17651 3.78364 5.30791 3.72091 5.31895 3.59737C5.31977 3.58955 5.1761 3.55332 5.17499 3.54603C5.1673 3.45385 5.2485 3.39051 5.2341 3.29609C5.23316 3.28842 5.09608 3.25674 5.0901 3.24303C5.07685 3.21464 5.09317 3.18889 5.14316 3.17975C5.1673 3.17521 5.27751 3.22532 5.29948 3.22003C5.35082 3.20779 5.36919 3.18334 5.35618 3.15047C5.35037 3.13639 5.20792 3.11094 5.21103 3.09593C5.22936 2.99285 5.23713 2.88846 5.44683 2.84331C5.46123 2.84023 5.74162 2.92019 5.6929 2.88914C5.61599 2.86418 5.52509 2.83617 5.44262 2.81019C5.44462 2.65251 5.58719 2.53983 5.64872 2.40009C5.6513 2.39419 5.50034 2.35915 5.50456 2.3475C5.52877 2.27997 5.5093 2.20113 5.67846 2.17665C5.69503 2.17416 5.95345 2.25785 5.92076 2.22533C5.91475 2.21952 5.89008 2.17811 5.83629 2.15277C5.82815 2.14907 5.70517 2.11727 5.70485 2.10628C5.70505 2.04307 5.75218 1.99133 5.84471 1.95676C5.85989 1.95125 5.98573 2.00096 5.99763 1.99738C6.08125 1.9717 5.99964 1.89049 6.13124 1.88191C6.21977 1.87631 6.43921 1.95626 6.66384 2.00812C6.69554 2.01543 6.70642 1.9984 6.83447 2.03688C7.15642 2.13358 7.50517 2.25115 7.84869 2.35316C7.92265 2.37515 7.85126 2.32579 8.02472 2.39551C8.0363 2.40022 8.0896 2.43649 8.14863 2.45959C8.18942 2.47558 8.3211 2.51012 8.37257 2.53294C8.42399 2.55574 8.31288 2.52905 8.37236 2.5589C8.43262 2.58899 8.58186 2.63002 8.59262 2.65627ZM4.69529 7.73387C4.82469 7.75571 4.371 7.61295 4.47397 7.66435C4.4795 7.66699 4.68891 7.73283 4.69529 7.73387ZM4.12285 9.75071C4.33026 9.79107 4.04029 9.68531 3.88057 9.65271C3.72101 9.62015 4.05997 9.73851 4.12285 9.75071ZM4.19702 10.0194C4.36319 10.043 3.72003 9.84007 3.8416 9.90727C3.84845 9.91111 4.18736 10.018 4.19702 10.0194ZM6.7025 2.10123C6.70863 2.10287 6.71882 2.09135 6.71293 2.08918C6.57089 2.03752 6.5506 2.06057 6.7025 2.10123ZM4.28473 10.2904C4.37444 10.3094 4.28113 10.2557 4.16957 10.232C4.07981 10.213 4.17313 10.2667 4.28473 10.2904ZM5.45808 7.02363C5.46491 7.02547 5.47412 7.01779 5.43579 7.00619C5.31224 6.96875 5.34276 6.99279 5.45808 7.02363ZM4.17039 10.6696C4.21265 10.6214 4.75588 10.752 4.67623 10.7941C4.66183 10.8018 4.5141 10.718 4.46162 10.7172C4.36589 10.7158 4.69468 10.836 4.50715 10.8068C4.47283 10.8014 4.16679 10.672 4.16969 10.6693C4.16994 10.6694 4.17014 10.6695 4.17039 10.6696ZM5.24421 7.89295C5.25035 7.89447 5.26033 7.88299 5.25444 7.88083C5.11248 7.82911 5.09231 7.85219 5.24421 7.89295ZM5.91921 6.55271C5.93226 6.55591 5.95415 6.52891 5.94265 6.52427C5.71188 6.43539 5.66692 6.48979 5.91921 6.55271ZM5.289 8.88671C5.42949 8.94595 5.44078 8.96851 5.2548 8.92375C5.26912 8.91239 5.27542 8.89839 5.289 8.88671Z" fill="var(--fill-0, #C0BD6D)"/>
</g>
</svg>
