<svg width="162" height="162" viewBox="0 0 162 162" fill="none" xmlns="http://www.w3.org/2000/svg">
<path d="M37.2002 40.6341C37.2002 29.4869 46.2368 20.4503 57.3841 20.4503H105.582C116.729 20.4503 125.766 29.4869 125.766 40.6341C125.766 51.7814 116.729 60.818 105.582 60.818H57.3841C46.2368 60.818 37.2002 51.7814 37.2002 40.6341Z" fill="white"/>
<path d="M37.2002 80.9989C37.2002 69.8516 46.2368 60.815 57.3841 60.815H105.582C116.729 60.815 125.766 69.8516 125.766 80.9989C125.766 92.1461 116.729 101.183 105.582 101.183H57.3841C46.2368 101.183 37.2002 92.1461 37.2002 80.9989Z" fill="white"/>
<path d="M37.2002 121.369C37.2002 110.222 46.2368 101.185 57.3841 101.185H105.582C116.729 101.185 125.766 110.222 125.766 121.369C125.766 132.516 116.729 141.553 105.582 141.553H57.3841C46.2368 141.553 37.2002 132.516 37.2002 121.369Z" fill="white"/>
<path d="M125.77 161.735C125.77 150.588 116.683 141.552 105.474 141.552H57.5005C46.2914 141.552 37.2047 150.588 37.2046 161.735C37.2046 161.824 37.2074 161.912 37.2085 162H125.766C125.767 161.912 125.77 161.824 125.77 161.735Z" fill="white"/>
<path d="M125.77 0.263672C125.77 11.4108 116.683 20.4481 105.474 20.4482H57.5004C46.2913 20.448 37.2045 11.4108 37.2045 0.263672C37.2045 0.175639 37.2073 0.0877662 37.2085 0H125.766C125.767 0.0877665 125.77 0.175639 125.77 0.263672Z" fill="white"/>
</svg>
