<svg width="162" height="164" viewBox="0 0 162 164" fill="none" xmlns="http://www.w3.org/2000/svg">
<circle cx="80.9443" cy="81.5347" r="42.5249" fill="white"/>
<rect x="92.8511" y="79.8359" width="83.3488" height="23.8139" rx="11.907" transform="rotate(90 92.8511 79.8359)" fill="white"/>
<rect width="83.3488" height="23.8139" rx="11.907" transform="matrix(0.34203 0.939689 -0.939696 0.34201 91.5244 75.8848)" fill="white"/>
<rect width="83.3488" height="23.8139" rx="11.907" transform="matrix(0.6428 0.766034 -0.766055 0.642775 88.938 72.627)" fill="white"/>
<rect width="83.3488" height="23.8139" rx="11.907" transform="matrix(0.866032 0.499988 -0.500012 0.866018 85.3901 70.4521)" fill="white"/>
<rect width="83.3488" height="23.8139" rx="11.907" transform="matrix(0.984809 0.173643 -0.173654 0.984807 81.3169 69.6211)" fill="white"/>
<rect width="83.3488" height="23.8139" rx="11.907" transform="matrix(0.984809 -0.173643 0.173654 0.984807 77.2046 70.2334)" fill="white"/>
<rect width="83.3488" height="23.8139" rx="11.907" transform="matrix(0.866032 -0.499988 0.500012 0.866018 73.5537 72.2129)" fill="white"/>
<rect width="83.3488" height="23.8139" rx="11.907" transform="matrix(0.6428 -0.766034 0.766055 0.642775 70.7954 75.3301)" fill="white"/>
<rect width="83.3488" height="23.8139" rx="11.907" transform="matrix(0.34203 -0.939689 0.939696 0.34201 69.271 79.1924)" fill="white"/>
<rect x="69.1597" y="83.3486" width="83.3488" height="23.8139" rx="11.907" transform="rotate(-90 69.1597 83.3486)" fill="white"/>
<rect width="83.3488" height="23.8139" rx="11.907" transform="matrix(-0.34203 -0.939689 0.939696 -0.34201 70.4766 87.292)" fill="white"/>
<rect width="83.3488" height="23.8139" rx="11.907" transform="matrix(-0.6428 -0.766034 0.766055 -0.642775 73.063 90.5459)" fill="white"/>
<rect width="83.3488" height="23.8139" rx="11.907" transform="matrix(-0.866033 -0.499988 0.500012 -0.866019 76.6069 92.7207)" fill="white"/>
<rect width="83.3488" height="23.8139" rx="11.907" transform="matrix(-0.984809 -0.173643 0.173654 -0.984807 80.6802 93.5518)" fill="white"/>
<rect width="83.3488" height="23.8139" rx="11.907" transform="matrix(-0.984809 0.173643 -0.173654 -0.984807 84.7925 92.9395)" fill="white"/>
<rect width="83.3488" height="23.8139" rx="11.907" transform="matrix(-0.866032 0.499988 -0.500012 -0.866018 88.4429 90.9561)" fill="white"/>
<rect width="83.3488" height="23.8139" rx="11.907" transform="matrix(-0.6428 0.766034 -0.766055 -0.642775 91.2017 87.8428)" fill="white"/>
<rect width="83.3488" height="23.8139" rx="11.907" transform="matrix(-0.34203 0.939689 -0.939696 -0.34201 92.7261 83.9766)" fill="white"/>
</svg>
