<svg xmlns="http://www.w3.org/2000/svg" fill="none" viewBox="0 0 162 164"><circle cx="80.944" cy="81.535" r="42.525" fill="#fff"/><rect width="83.349" height="23.814" x="92.851" y="79.836" fill="#fff" rx="11.907" transform="rotate(90 92.8511 79.8359)"/><rect width="83.349" height="23.814" fill="#fff" rx="11.907" transform="matrix(0.34203 0.939689 -0.939696 0.34201 91.5244 75.8848)"/><rect width="83.349" height="23.814" fill="#fff" rx="11.907" transform="matrix(0.6428 0.766034 -0.766055 0.642775 88.938 72.627)"/><rect width="83.349" height="23.814" fill="#fff" rx="11.907" transform="matrix(0.866032 0.499988 -0.500012 0.866018 85.3901 70.4521)"/><rect width="83.349" height="23.814" fill="#fff" rx="11.907" transform="matrix(0.984809 0.173643 -0.173654 0.984807 81.3169 69.6211)"/><rect width="83.349" height="23.814" fill="#fff" rx="11.907" transform="matrix(0.984809 -0.173643 0.173654 0.984807 77.2046 70.2334)"/><rect width="83.349" height="23.814" fill="#fff" rx="11.907" transform="matrix(0.866032 -0.499988 0.500012 0.866018 73.5537 72.2129)"/><rect width="83.349" height="23.814" fill="#fff" rx="11.907" transform="matrix(0.6428 -0.766034 0.766055 0.642775 70.7954 75.3301)"/><rect width="83.349" height="23.814" fill="#fff" rx="11.907" transform="matrix(0.34203 -0.939689 0.939696 0.34201 69.271 79.1924)"/><rect width="83.349" height="23.814" x="69.16" y="83.349" fill="#fff" rx="11.907" transform="rotate(-90 69.1597 83.3486)"/><rect width="83.349" height="23.814" fill="#fff" rx="11.907" transform="matrix(-0.34203 -0.939689 0.939696 -0.34201 70.4766 87.292)"/><rect width="83.349" height="23.814" fill="#fff" rx="11.907" transform="matrix(-0.6428 -0.766034 0.766055 -0.642775 73.063 90.5459)"/><rect width="83.349" height="23.814" fill="#fff" rx="11.907" transform="matrix(-0.866033 -0.499988 0.500012 -0.866019 76.6069 92.7207)"/><rect width="83.349" height="23.814" fill="#fff" rx="11.907" transform="matrix(-0.984809 -0.173643 0.173654 -0.984807 80.6802 93.5518)"/><rect width="83.349" height="23.814" fill="#fff" rx="11.907" transform="matrix(-0.984809 0.173643 -0.173654 -0.984807 84.7925 92.9395)"/><rect width="83.349" height="23.814" fill="#fff" rx="11.907" transform="matrix(-0.866032 0.499988 -0.500012 -0.866018 88.4429 90.9561)"/><rect width="83.349" height="23.814" fill="#fff" rx="11.907" transform="matrix(-0.6428 0.766034 -0.766055 -0.642775 91.2017 87.8428)"/><rect width="83.349" height="23.814" fill="#fff" rx="11.907" transform="matrix(-0.34203 0.939689 -0.939696 -0.34201 92.7261 83.9766)"/></svg>