<svg width="162" height="162" viewBox="0 0 162 162" fill="none" xmlns="http://www.w3.org/2000/svg">
<path d="M37.1992 40.6341C37.1992 29.4869 46.2358 20.4503 57.3831 20.4503C46.174 20.4501 37.2035 11.4108 37.2035 0.263672C37.2035 0.175639 37.2063 0.0877662 37.2075 0H125.765C125.766 0.0877665 125.769 0.175639 125.769 0.263672C125.769 11.4108 116.682 20.4481 105.473 20.4482C116.62 20.4482 125.765 29.4869 125.765 40.6341C125.765 51.6984 116.862 60.6833 105.83 60.8165C116.862 60.9497 125.765 69.9346 125.765 80.9989C125.765 92.1461 116.728 101.183 105.581 101.183C116.728 101.183 125.765 110.222 125.765 121.369C125.765 132.516 116.728 141.553 105.581 141.553C116.79 141.553 125.769 150.588 125.769 161.735C125.769 161.824 125.766 161.912 125.765 162H37.2075C37.2064 161.912 37.2036 161.824 37.2036 161.735C37.2037 150.588 46.174 141.553 57.3831 141.553C46.2358 141.553 37.1992 132.516 37.1992 121.369C37.1992 110.222 46.2358 101.183 57.3831 101.183C46.2358 101.183 37.1992 92.1461 37.1992 80.9989C37.1992 69.9346 46.1017 60.9497 57.1344 60.8165C46.1017 60.6833 37.1992 51.6984 37.1992 40.6341Z" fill="white"/>
</svg>
