<svg width="162" height="162" viewBox="0 0 162 162" fill="none" xmlns="http://www.w3.org/2000/svg">
<path d="M125.982 0C125.598 9.2238 119.166 17.4211 109.277 22.8382C103.126 26.2073 98.3087 32.1404 98.3085 39.1878C98.3085 46.2354 103.126 52.1691 109.277 55.5383C119.477 61.1264 126 69.6729 126 79.2522C126 88.3518 120.115 96.5193 110.782 102.104C103.882 106.233 98.3087 112.981 98.3085 121.059C98.3085 129.137 103.882 135.886 110.782 140.015C119.817 145.422 125.621 153.249 125.982 162H36.0188C36.3796 153.249 42.1851 145.42 51.2224 140.013C58.1214 135.885 63.6934 129.137 63.6934 121.059C63.6932 112.981 58.1213 106.234 51.2224 102.106C41.8877 96.5211 36 88.3527 36 79.2522C36.0002 69.6721 42.5249 61.1245 52.7272 55.5363C58.8771 52.1677 63.6934 46.2347 63.6934 39.1878C63.6932 32.1411 58.877 26.2087 52.7272 22.8402C42.8365 17.4229 36.4026 9.22458 36.0188 0H125.982Z" fill="white"/>
</svg>
